<?xml version="1.0" standalone="no"?>
<!DOCTYPE svg PUBLIC "-//W3C//DTD SVG 1.1//EN" "http://www.w3.org/Graphics/SVG/1.1/DTD/svg11.dtd" >
<svg>
<metadata>
Created by FontForge 20090622 at Thu Sep 22 04:41:55 2016
 By deploy user
Copyright (c) 2012 by Ania Kruk (hello@aniakruk.com), with Reserved Font Name "Kotta"
</metadata>
<defs>
<font id="KottaOne-Regular" horiz-adv-x="400" >
  <font-face 
    font-family="Kotta One"
    font-weight="400"
    font-stretch="normal"
    units-per-em="1000"
    panose-1="2 0 0 0 0 0 0 0 0 0"
    ascent="800"
    descent="-200"
    x-height="480"
    cap-height="687"
    bbox="-97 -288 1088 915"
    underline-thickness="50"
    underline-position="-50"
    unicode-range="U+0020-U+FB02"
  />
<missing-glyph horiz-adv-x="0" 
 />
    <glyph glyph-name=".notdef" horiz-adv-x="0" 
 />
    <glyph glyph-name=".null" horiz-adv-x="0" 
 />
    <glyph glyph-name="nonmarkingreturn" horiz-adv-x="333" 
 />
    <glyph glyph-name="space" unicode=" " horiz-adv-x="200" 
 />
    <glyph glyph-name="exclam" unicode="!" horiz-adv-x="259" 
d="M80 75.5q19 9.5 39 9.5t31.5 -9t11.5 -20l-5 -36q-11 -30 -64 -30q-20 0 -30.5 9t-10.5 21l4 31q5 15 24 24.5zM113 166l-23 5q8 49 18 206t10 303l78 16l14 -16q-20 -117 -41.5 -284.5t-21.5 -224.5q-13 -5 -34 -5z" />
    <glyph glyph-name="quotedbl" unicode="&#x22;" horiz-adv-x="339" 
d="M79 485l-23 5q14 102 14 209l65 16l14 -16q-36 -157 -36 -209q-13 -5 -34 -5zM216 485l-23 5q14 102 14 209l65 16l14 -16q-36 -157 -36 -209q-13 -5 -34 -5z" />
    <glyph glyph-name="numbersign" unicode="#" horiz-adv-x="640" 
d="M402 -10l-28 5q8 57 21 200h-168q-16 -149 -16 -200q-18 -5 -39 -5l-28 5q8 57 21 200h-110q-5 11 -5 23l5 34h115q8 89 11 146h-126q-5 11 -5 23l5 34h130q9 148 9 225l78 16l14 -16q-9 -50 -31 -225q100 0 160 2q9 148 9 223l78 16l14 -16q-11 -63 -30 -220q32 1 76 5
l16 -14l-13 -53h-86q-12 -96 -16 -143q68 4 99 7l16 -14l-13 -53h-108q-16 -149 -16 -200q-18 -5 -39 -5zM249 398q-12 -96 -16 -146q103 0 167 2q7 85 11 144h-162z" />
    <glyph glyph-name="dollar" unicode="$" horiz-adv-x="534" 
d="M259 609l1 57l67 13l12 -13l-8 -49q45 0 80.5 -15.5t41.5 -36.5q-19 -36 -29 -86l-4 -17q-22 -9 -47 -9q7 23 7 45q0 51 -22 67h-34l-25 -214q73 -47 106 -83t33 -76q0 -83 -46 -131.5t-130 -59.5q-3 -42 -3 -61q-16 -5 -35 -5l-24 5l7 57q-73 0 -112 18.5t-50 44.5
q20 35 31 84l3 17q22 8 47 8q-7 -17 -7 -44q0 -49 22 -65h73q9 84 23 239q-63 36 -91.5 66.5t-28.5 76.5q0 136 142 167zM362 160q0 55 -73 106q-17 -158 -21 -206h47q47 31 47 100zM184 471q0 -44 60 -86q10 133 13 180q-35 -12 -54 -40t-19 -54z" />
    <glyph glyph-name="percent" unicode="%" horiz-adv-x="755" 
d="M117.5 367.5q-28.5 24.5 -28.5 77t42 100.5t89 48t75.5 -25.5t28.5 -77.5t-41 -99.5t-96 -47.5q-41 0 -69.5 24.5zM195 542q-47 -26 -47 -80.5t38 -68.5h37q18 7 29.5 31t11.5 51q0 49 -35 67h-34zM440.5 14.5q-28.5 24.5 -28.5 77t42 100.5t89 48t75.5 -25.5t28.5 -77.5
t-41 -99.5t-96 -47.5q-41 0 -69.5 24.5zM518 189q-47 -26 -47 -80.5t38 -68.5h37q18 7 29.5 31t11.5 51q0 50 -35 67h-34zM142 -15l-30 5l236.5 314t212.5 321l92 16l4 -16l-92.5 -120.5l-90 -117l-74.5 -100.5l-212 -297q-26 -5 -46 -5z" />
    <glyph glyph-name="ampersand" unicode="&#x26;" horiz-adv-x="690" 
d="M439.5 661.5q29.5 -28.5 29.5 -64.5t-10 -64.5t-21.5 -46.5t-38 -42.5t-40 -34.5l-47.5 -35q59 -96 178 -217q26 35 45 65q29 -10 43 -30l4 -6q-29 -42 -52 -70q44 -44 87 -82v-13l-64 -51q-45 43 -81 82q-47 -43 -92 -55t-120.5 -12t-125 39t-49.5 114t37 129.5
t103 105.5q-45 87 -45 153.5t50 115t115 48.5t94.5 -28.5zM169 167q0 -41 20.5 -70.5t58.5 -36.5h113q2 0 9 2t10 2.5t9.5 2.5t11 4t10.5 5q7 3 23 17q-119 129 -182 234q-83 -72 -83 -160zM251 545q0 -58 36 -127q55 41 82.5 75t27.5 81.5t-29 60.5h-64q-24 -8 -38.5 -34.5
t-14.5 -55.5z" />
    <glyph glyph-name="quotesingle" unicode="'" horiz-adv-x="185" 
d="M79 485l-23 5q14 102 14 209l65 16l14 -16q-36 -157 -36 -209q-13 -5 -34 -5z" />
    <glyph glyph-name="parenleft" unicode="(" horiz-adv-x="285" 
d="M57 214q0 254 177 499q11 0 20 -4l18 -12q-146 -236 -146 -450q0 -78 22 -178.5t44 -162.5l22 -62q-7 -8 -18 -11l-23 -4q-13 18 -36.5 67t-39 92t-28 105t-12.5 121z" />
    <glyph glyph-name="parenright" unicode=")" horiz-adv-x="291" 
d="M222 328q0 -254 -177 -499q-11 0 -20 4l-18 12q146 236 146 450q0 78 -22 178.5t-44 162.5l-22 62q7 8 18 11l23 4q13 -18 36.5 -67t39 -92t28 -105t12.5 -121z" />
    <glyph glyph-name="asterisk" unicode="*" horiz-adv-x="357" 
d="M135 543q-36 23 -91 49l23 46h11l84 -56l3 5q0 48 -2 71.5t-2 31.5l64 10l5 -10q-13 -27 -21 -106l53 23t45 19l11 -36l-7 -9q-54 -17 -89 -32q33 -54 66 -98v-11l-59 -25l-52 100l-54 -85h-67l-4 10q65 74 83 103z" />
    <glyph glyph-name="plus" unicode="+" horiz-adv-x="473" 
d="M223 481q14 5 30.5 5t26.5 -5l-11 -127q68 5 112 9l16 -14l-13 -53h-119l-10 -119q-14 -5 -35.5 -5t-21.5 6l9 118h-116q-5 11 -5 23l5 34h121z" />
    <glyph glyph-name="comma" unicode="," horiz-adv-x="233" 
d="M49 -174q-15 5 -29 19v12q28 24 50 59.5t22 60t-10 44t-19 19.5v31q39 13 80 47h7q19 -29 19 -68t-30 -97t-60 -93z" />
    <glyph glyph-name="hyphen" unicode="-" horiz-adv-x="407" 
d="M144 353q88 0 199 10l16 -14l-13 -63h-293q-5 21 -5 33l5 34h91z" />
    <glyph glyph-name="period" unicode="." horiz-adv-x="216" 
d="M87 75.5q19 9.5 39 9.5t31.5 -9t11.5 -20l-5 -36q-11 -30 -64 -30q-20 0 -30.5 9t-10.5 21l4 31q5 15 24 24.5z" />
    <glyph glyph-name="slash" unicode="/" horiz-adv-x="461" 
d="M51 -150l-27 5q32 67 164.5 386t180.5 459l92 16l4 -16q-50 -97 -200 -439t-171 -406q-10 -5 -43 -5z" />
    <glyph glyph-name="zero" unicode="0" horiz-adv-x="578" 
d="M335 690q98 0 149 -78t51 -189q0 -118 -37 -225q-20 -60 -50.5 -106.5t-80 -76.5t-110.5 -30q-98 0 -149 78t-51 189q0 118 37 225q20 60 50.5 106.5t80 76.5t110.5 30zM454 389q0 164 -103 236h-93q-54 -27 -87 -137t-33 -202q0 -164 103 -236h93q54 27 87 137t33 202z
" />
    <glyph glyph-name="one" unicode="1" horiz-adv-x="414" 
d="M362 36q0 -23 -10 -43q-129 7 -166 7l-120 -7q0 23 10 43q64 11 95 33q17 116 35 284.5t20 233.5q-69 -90 -104 -144q-13 0 -26.5 11t-18.5 23v4q81 80 157 198l68 15l13 -15q-15 -87 -36 -296t-27 -330q55 -12 98 -16z" />
    <glyph glyph-name="two" unicode="2" horiz-adv-x="524" 
d="M92 -10q-42 4 -61 19v10q47 71 116 148t118.5 125t86 104.5t36.5 101t-14 76t-33 46.5h-130q-20 -18 -35 -58l-6 -15q-19 0 -39 12q1 59 15 96q56 35 152 35t135 -44.5t39 -111.5t-33 -127.5t-75 -105l-110.5 -116t-111.5 -125.5h266q17 26 24 63l3 13q28 -7 45 -25
q-21 -80 -23 -121q-62 -5 -115 -5q-128 0 -237 25z" />
    <glyph glyph-name="three" unicode="3" horiz-adv-x="442" 
d="M92 547q-19 0 -39 12q1 59 15 96q61 35 140.5 35t117 -32t37.5 -90q0 -87 -91 -163q47 -14 77.5 -54t30.5 -101q0 -102 -83.5 -181t-187.5 -79q-49 0 -93 18l-14 6q0 23 17 46h156q52 15 86 57.5t34 97t-27.5 92.5t-66.5 49l-31 -17q-22 4 -39 25v12q160 90 160 175
q0 55 -41 69h-117q-20 -18 -35 -58z" />
    <glyph glyph-name="four" unicode="4" horiz-adv-x="535" 
d="M485 237q0 -36 -17 -61l-5 -9h-80q-2 -32 -8 -167q-23 -10 -43 -10q-32 0 -48 10l21 167h-254l-12 11v54l263 374l47 69l62 15l13 -15q-27 -217 -38 -438h99zM342 579q-131 -178 -222 -342h193q15 138 29 342z" />
    <glyph glyph-name="five" unicode="5" horiz-adv-x="460" 
d="M136 -10q-48 0 -92 18l-14 6q3 29 13 46h158q54 23 83 69.5t29 116t-37.5 113t-109.5 44.5h-58l-12 18q37 147 37 249l11 10q91 0 160 6t92 12l24 7l9 -7q-2 -9 -10.5 -27.5t-17.5 -30.5q-24 -30 -56 -30h-153q-17 -49 -32 -138h17q101 0 156 -48t55 -143
q0 -117 -71 -204t-181 -87z" />
    <glyph glyph-name="six" unicode="6" horiz-adv-x="546" 
d="M317 456q155 0 155 -193q0 -90 -58 -179q-28 -41 -72 -67.5t-96 -26.5q-94 0 -140.5 61t-46.5 191q0 119 43 233q23 61 57 108t87.5 77t118.5 30q33 0 61.5 -8.5t40.5 -17.5l12 -8q-1 -24 -10 -36h-184q-40 -15 -80.5 -82.5t-60.5 -153.5q78 72 173 72zM131 271
q0 -145 85 -211h98q38 20 64.5 68.5t26.5 109t-30 110t-77 49.5h-58q-53 -11 -106 -72q-3 -27 -3 -54z" />
    <glyph glyph-name="seven" unicode="7" horiz-adv-x="527" 
d="M79 543q-19 0 -33 12q2 53 27 125h397l11 -10l-296 -670q-15 -10 -33 -10q-28 0 -40 10l276 610h-273q-21 -27 -32 -56z" />
    <glyph glyph-name="eight" unicode="8" horiz-adv-x="479" 
d="M112 497q0 89 53 141t121.5 52t102.5 -38t34 -96q0 -96 -121 -178q40 -29 63.5 -50t44 -54.5t20.5 -68.5q0 -91 -62.5 -153t-162.5 -62q-81 0 -124 39.5t-43 110t39 122.5t122 102q-87 69 -87 133zM345 109.5q19 32.5 19 65.5t-22.5 64.5t-44 49.5t-65.5 50
q-65 -39 -95 -75t-30 -98q0 -38 20.5 -68t53.5 -38h119q26 17 45 49.5zM187.5 592q-15.5 -28 -15.5 -62t25 -63.5t73 -64.5q81 64 81 137q0 33 -14 62t-34 31h-74q-26 -12 -41.5 -40z" />
    <glyph glyph-name="nine" unicode="9" horiz-adv-x="516" 
d="M164 -10q-33 0 -61.5 8.5t-40.5 17.5l-12 8q1 24 10 36h184q39 14 76 79.5t55 150.5q-70 -66 -172 -66q-155 0 -155 193q0 90 58 179q28 41 72 67.5t96 26.5q94 0 140.5 -61t46.5 -191q0 -119 -45 -233q-23 -60 -56.5 -107.5t-84.5 -77.5t-111 -30zM389 409q0 78 -25 133
t-60 83h-98q-37 -20 -64 -70.5t-27 -111.5t30 -110.5t77 -49.5h58q51 11 105 65q4 40 4 61z" />
    <glyph glyph-name="colon" unicode=":" horiz-adv-x="249" 
d="M98 75.5q19 9.5 39 9.5t31.5 -9t11.5 -20l-5 -36q-11 -30 -64 -30q-20 0 -30.5 9t-10.5 21l4 31q5 15 24 24.5zM130 440.5q19 9.5 39 9.5t31.5 -9t11.5 -20l-5 -36q-11 -30 -64 -30q-20 0 -30.5 9t-10.5 21l4 31q5 15 24 24.5z" />
    <glyph glyph-name="semicolon" unicode=";" horiz-adv-x="235" 
d="M49 -174q-15 5 -29 19v12q28 24 50 59.5t22 60t-10 44t-19 19.5v31q39 13 80 47h7q19 -29 19 -68t-30 -97t-60 -93zM106 440.5q19 9.5 39 9.5t31.5 -9t11.5 -20l-5 -36q-11 -30 -64 -30q-20 0 -30.5 9t-10.5 21l4 31q5 15 24 24.5z" />
    <glyph glyph-name="less" unicode="&#x3c;" horiz-adv-x="474" 
d="M413 133v-10q-16 -20 -51 -40l-312 204l-4 15l326 211q24 0 40 -20q4 -5 6 -10l-275 -172z" />
    <glyph glyph-name="equal" unicode="=" horiz-adv-x="475" 
d="M182 304q88 0 199 10l16 -14l-13 -63h-293q-5 21 -5 33l5 34h91zM182 429q88 0 199 10l16 -14l-13 -63h-293q-5 21 -5 33l5 34h91z" />
    <glyph glyph-name="greater" unicode="&#x3e;" horiz-adv-x="462" 
d="M413 316l-326 -211q-24 0 -40 20q-4 5 -6 10l275 172l-263 172v10q16 20 51 40l305 -198z" />
    <glyph glyph-name="question" unicode="?" horiz-adv-x="372" 
d="M70 75.5q19 9.5 39 9.5t31.5 -9t11.5 -20l-5 -36q-11 -30 -64 -30q-20 0 -30.5 9t-10.5 21l4 31q5 15 24 24.5zM287 452q0 61 -53 120.5t-111 71.5v18l53 35q65 -20 122.5 -78.5t57.5 -138.5t-55.5 -135t-134.5 -55l-19 -119q-13 -5 -34 -5l-23 5l14 164l12 12h112
q59 31 59 105z" />
    <glyph glyph-name="at" unicode="@" horiz-adv-x="1207" 
d="M1067.5 493.5q20.5 -60.5 20.5 -148t-30.5 -167.5t-90.5 -166q-133 0 -245 -27q-36 0 -36 45l19 143l-10 6q-37 -90 -75 -139.5t-100 -49.5t-104 45.5t-42 123.5q0 129 77 225t191 96q37 0 84 -29q2 18 4 29q50 15 95 15q-19 -77 -31.5 -166t-24.5 -269h167q9 9 24 35
t24 53q26 71 26 163q0 127 -59 213.5t-152 108.5h-261q-123 -59 -216.5 -196t-93.5 -274q0 -177 80 -249q40 -37 88 -55.5t116 -26.5h298q0 -22 -21 -43q-205 -33 -262 -33q-193 0 -290 89t-97 260q0 116 42.5 226t118.5 195.5t189.5 137t246.5 51.5q89 0 158.5 -30
t110.5 -80.5t61.5 -111zM450 187q0 -44 20 -79.5t45 -47.5h48q58 11 141 210q4 42 16 140h-160q-39 -7 -74.5 -77.5t-35.5 -145.5z" />
    <glyph glyph-name="A" unicode="A" horiz-adv-x="672" 
d="M682 31q0 -23 -10 -43q-103 7 -140 7l-105 -7q0 23 10 43q29 7 55 20q-31 159 -36 181q-117 3 -154.5 3t-87.5 -4l-88 -180l86 -20q0 -23 -10 -43q-80 7 -117 7l-95 -7q0 23 10 43q32 9 59 28q187 330 299 578l-8 32q43 21 92 21q94 -425 157 -644zM239 283
q47 -3 96.5 -3t109.5 2q-12 57 -66 274q-53 -97 -140 -273z" />
    <glyph glyph-name="B" unicode="B" horiz-adv-x="583" 
d="M342 690q178 0 178 -140q0 -123 -109 -177q65 -15 98 -53.5t33 -90.5q0 -122 -80 -180.5t-209 -58.5q-33 0 -77.5 5t-60.5 5l-95 -7q0 23 10 43q40 12 68 36q26 220 45 554l-75 18q0 23 10 43q64 -7 101 -7t91 5t72 5zM338 336h-138q-4 -47 -16 -276h194q87 33 87 139
q0 62 -39.5 99.5t-87.5 37.5zM447 521q0 37 -17 67t-48 37h-154q-16 -129 -25 -243h145q99 44 99 139z" />
    <glyph glyph-name="C" unicode="C" horiz-adv-x="582" 
d="M147 487.5q-46 -92.5 -46 -186t35.5 -159t103.5 -82.5h239q0 -23 -10 -43q-141 -37 -223 -37q-106 0 -167.5 74t-61.5 187q0 139 63 255q68 125 188 174q64 26 126.5 26t102 -18.5t51.5 -42.5q-21 -38 -34 -99l-5 -20q-25 -9 -54 -9q8 22 8 51q0 49 -26 67h-160
q-84 -45 -130 -137.5z" />
    <glyph glyph-name="D" unicode="D" horiz-adv-x="657" 
d="M195 680l175 10q54 0 99 -20t75 -52t51 -74q39 -77 39 -161q0 -179 -105 -286t-284 -107q-32 0 -71 5t-51 5h-21l-82 -7q0 23 10 43q40 12 68 36q21 177 44 554l-74 18q0 23 10 43q80 -7 117 -7zM352 625h-135q-18 -154 -21.5 -225.5t-7.5 -175.5t-7 -164h193
q77 30 128.5 120t51.5 184.5t-57 177.5t-145 83z" />
    <glyph glyph-name="E" unicode="E" horiz-adv-x="574" 
d="M537 680q9 -8 16 -25q-21 -37 -35 -90l-4 -17q-20 -9 -49 -9q9 40 9 60t-15 26h-243q-19 -164 -26 -255h224q16 24 24 54q7 3 20 3l22 -4q-21 -66 -31 -169q-8 -4 -20 -4l-17 3q0 40 -8 67h-217q-9 -122 -15 -260h259q19 28 28 64l3 13q31 -6 42 -21l4 -6
q-20 -50 -26 -110h-375l-95 -7q0 23 10 43q36 11 64 33q26 223 45 557l-75 18q0 23 10 43q64 -7 104 -7h367z" />
    <glyph glyph-name="F" unicode="F" horiz-adv-x="527" 
d="M75 644q0 23 10 43q80 -7 117 -7h354q9 -8 16 -25q-21 -37 -34 -90l-5 -17q-20 -9 -49 -9q9 40 9 60t-15 26h-243q-19 -164 -26 -255h224q16 24 24 54q7 3 20 3l22 -4q-21 -66 -31 -169q-8 -4 -20 -4l-17 3q0 40 -8 67h-217q-8 -114 -16 -269l82 -15q0 -23 -10 -43
q-83 7 -117 7q-48 0 -103 -6l-15 -1q0 23 10 43q40 12 68 36q26 220 45 554z" />
    <glyph glyph-name="G" unicode="G" horiz-adv-x="655" 
d="M548 37q-159 -57 -267.5 -57t-166.5 72.5t-58 188.5q0 139 63 255q68 125 187 174q65 26 128.5 26t117.5 -19.5t65 -41.5q-21 -38 -35 -99l-4 -20q-25 -9 -54 -9q8 22 8 51q0 49 -26 67h-190q-84 -45 -130 -137.5t-46 -186t37 -159t105 -82.5h190q19 84 21 167l-76 17
q0 23 10 43q63 -7 102 -7l105 7q0 -23 -10 -43q-31 -6 -58 -20q-12 -67 -18 -187z" />
    <glyph glyph-name="H" unicode="H" horiz-adv-x="755" 
d="M288 36q0 -23 -10 -43q-83 7 -119 7q-55 0 -103 -6l-13 -1q0 23 10 43q40 12 68 36q26 223 45 558l-78 14q0 23 10 43q83 -7 120 -7l115 7q0 -23 -10 -43q-44 -8 -73 -29q-16 -131 -25 -245h323q10 176 16 260l-78 14q0 23 10 43q93 -7 130 -7l105 7q0 -23 -10 -43
q-44 -8 -73 -29q-27 -235 -44 -564l82 -15q0 -23 -10 -43q-83 7 -119 7q-55 0 -103 -6l-13 -1q0 23 10 43q40 12 68 36q18 158 25 249h-322q-8 -115 -16 -270z" />
    <glyph glyph-name="I" unicode="I" horiz-adv-x="334" 
d="M272 36q0 -23 -10 -43q-98 7 -128 7q-44 0 -94 -6l-13 -1q0 23 10 43q38 11 66 34q26 225 45 561l-76 13q0 23 10 43q88 -7 125 -7l110 7q0 -23 -10 -43q-47 -8 -75 -31q-26 -217 -44 -562z" />
    <glyph glyph-name="J" unicode="J" horiz-adv-x="295" 
d="M104 644q0 23 10 43q93 -7 130 -7l105 7q0 -23 -10 -43q-49 -9 -78 -33q-15 -105 -23.5 -265t-20 -247.5t-38.5 -154t-59 -107.5q-62 -77 -99 -97h-9q-12 15 -12 43q50 47 89 127t50.5 165.5t17.5 166t12.5 213t9.5 176.5z" />
    <glyph glyph-name="K" unicode="K" horiz-adv-x="598" 
d="M64 644q0 23 10 43q75 -7 110 -7q55 0 110 6l15 1q0 -23 -10 -43q-44 -8 -73 -29q-19 -171 -25 -246q31 7 80 21q70 70 103.5 108t95.5 120l-80 20q0 23 12 43q72 -7 109 -7l97 7q0 -23 -10 -43q-39 -4 -72 -37q-113 -113 -208 -233q87 -127 203 -322l83 -15
q0 -23 -10 -43q-90 7 -155 7q-96 182 -203 335l-48 -9q-8 -115 -16 -270l82 -15q0 -23 -10 -43q-103 7 -140 7l-95 -7q0 23 10 43q40 12 68 36q26 223 45 558z" />
    <glyph glyph-name="L" unicode="L" horiz-adv-x="547" 
d="M76 644q0 23 10 43q93 -7 124 -7q43 0 96 6l15 1q0 -23 -10 -43q-50 -9 -78 -33q-27 -230 -43 -551h275q19 28 27 72l2 15q30 -6 49 -27q-21 -52 -25 -120h-397l-95 -7q0 23 10 43q40 12 68 36q25 217 46 559z" />
    <glyph glyph-name="M" unicode="M" horiz-adv-x="855" 
d="M236 36q0 -23 -10 -43q-85 7 -122 7l-95 -7q0 23 10 43q40 11 68 36q45 313 66 553l-83 19q0 23 10 43q61 -7 100 -7h86q87 -346 155 -541q81 173 226 541h91l105 7q0 -23 -10 -43q-45 -8 -74 -30q-26 -275 -31 -562l85 -16q0 -23 -10 -43q-83 7 -119 7q-55 0 -103 -6
l-13 -1q0 23 10 43q37 11 65 34q20 189 32 508q-142 -309 -241 -578l-14 -10l-59 10q-77 315 -152 563q-39 -274 -56 -508z" />
    <glyph glyph-name="N" unicode="N" horiz-adv-x="672" 
d="M254 36q0 -23 -10 -43q-90 7 -127 7l-95 -7q0 23 10 43q39 11 67 35q18 132 25 216.5l14.5 183.5t12.5 155l-83 18q0 23 10 43q64 -7 104 -7h54q87 -177 178 -337l102 -180q30 286 38 463l-85 18q0 23 10 43q67 -7 101 -7q54 0 109 6l15 1q0 -23 -10 -43q-46 -8 -74 -30
q-36 -295 -48 -614l-14 -10l-59 10l-289 537q-15 -121 -38 -484z" />
    <glyph glyph-name="O" unicode="O" horiz-adv-x="687" 
d="M38 241q0 140 62 254q68 125 187 173q65 27 141 27q106 0 167.5 -73.5t61.5 -186.5q0 -174 -95 -309q-46 -66 -122.5 -106t-177.5 -40t-162.5 74t-61.5 187zM168 487.5q-46 -92.5 -46 -186t35.5 -159t103.5 -82.5h139q84 45 128.5 134t44.5 182t-34.5 160t-100.5 89h-140
q-84 -45 -130 -137.5z" />
    <glyph glyph-name="P" unicode="P" horiz-adv-x="469" 
d="M183 680l137 10q87 0 139 -39.5t52 -127.5q0 -113 -84.5 -177.5t-202.5 -64.5h-41l-13 -230l82 -15q0 -23 -10 -43q-103 7 -133 7q-44 0 -89 -6l-13 -1q0 23 10 43q40 12 68 36q26 220 45 554l-74 18q0 23 10 43q80 -7 117 -7zM395.5 390.5q37.5 45.5 37.5 98.5t-22 90
t-63 46h-133q-20 -172 -29 -293h104q68 13 105.5 58.5z" />
    <glyph glyph-name="Q" unicode="Q" horiz-adv-x="679" 
d="M38 241q0 140 62 254q68 125 187 173q65 27 141 27q106 0 167.5 -73.5t61.5 -189t-46.5 -222t-133.5 -167.5l218 -140v-33q-128 0 -199 50q-48 34 -102 80q-63 -20 -127 -20q-106 0 -167.5 74t-61.5 187zM168 487.5q-46 -92.5 -46 -186t35.5 -159t103.5 -82.5h75l54 40
l37 -24q71 49 108.5 132t37.5 172t-34.5 156t-100.5 89h-140q-84 -45 -130 -137.5z" />
    <glyph glyph-name="R" unicode="R" horiz-adv-x="577" 
d="M589 31q0 -23 -10 -43q-84 7 -149 7q-53 140 -128 291q-26 -5 -64 -5h-39l-13 -230l82 -15q0 -23 -10 -43q-103 7 -140 7l-95 -7q0 23 10 43q40 12 68 36q26 220 45 554l-74 18q0 23 10 43q80 -7 117 -7l136 10q87 0 139.5 -39.5t52.5 -122t-39 -137t-106 -83.5
q64 -149 129 -264zM449 498q0 43 -22.5 80.5t-63.5 46.5h-132q-20 -172 -29 -293h102q68 13 106.5 58.5t38.5 107.5z" />
    <glyph glyph-name="S" unicode="S" horiz-adv-x="534" 
d="M248 625q-64 -24 -64 -93.5t113 -134.5q95 -54 137.5 -98t42.5 -94q0 -111 -70.5 -168t-197.5 -57q-155 0 -185 70q21 38 34 99l5 20q25 9 54 9q-8 -22 -8 -51q0 -49 26 -67h200q59 37 59 108q0 46 -36 85.5t-111.5 83.5t-107.5 76t-32 81q0 101 68 151t179 50
q52 0 92.5 -17.5t48.5 -42.5q-21 -38 -35 -99l-4 -20q-25 -9 -54 -9q8 22 8 51q0 49 -26 67h-136z" />
    <glyph glyph-name="T" unicode="T" horiz-adv-x="559" 
d="M391 36q0 -23 -10 -43q-83 6 -127 7h-13l-95 -7q0 23 10 43q38 11 66 34q26 219 45 552l-167 -7q-18 -29 -26 -69q-19 -7 -51 -9l-3 7q18 66 25 143q156 -7 277 -7l294 7l3 -7q-22 -50 -35 -122l-4 -22q-22 -9 -53 -9q10 43 14 88q-93 5 -189 7q-28 -243 -45 -571z" />
    <glyph glyph-name="U" unicode="U" horiz-adv-x="703" 
d="M461 638q0 23 12 43q72 -7 109 -7l97 7q0 -23 -10 -43q-39 -4 -71 -37q-23 -293 -38 -380.5t-30.5 -125t-46.5 -64t-77.5 -36.5t-120.5 -10q-96 0 -148 48t-52 107.5t12.5 223t17.5 266.5l-80 14q0 23 10 43q93 -7 123 -7q44 0 98 6l14 1q0 -23 -10 -43q-46 -8 -75 -30
q-26 -208 -26 -442q0 -49 39.5 -80.5t89.5 -31.5h135q47 29 64 109t28 190.5t13 184.5l3 74z" />
    <glyph glyph-name="V" unicode="V" horiz-adv-x="577" 
d="M374.5 55q-76.5 -65 -181.5 -65t-128 37q27 334 30 583h-77q0 23 10 43q67 8 121 32q14 0 25 -12.5t11 -32.5q-30 -407 -30 -580h130q39 13 86 70q75 91 97 235q9 59 9 96q0 116 -29 179q3 5 10.5 12.5t37.5 20t67 12.5q0 -117 -19 -243t-56 -224t-113.5 -163z" />
    <glyph glyph-name="W" unicode="W" horiz-adv-x="877" 
d="M561 60q36 0 85 61t79 148.5t30 187.5t-38 183q5 5 14 12.5t41.5 20t69.5 12.5q0 -144 -27.5 -293.5t-75.5 -231.5q-99 -170 -231 -170q-37 0 -61.5 10t-30.5 20l-5 10l12 143l-10 6q-21 -53 -29.5 -67.5l-22 -38.5t-25 -34l-28.5 -24q-32 -25 -78 -25t-74.5 10t-38.5 20
l-10 10q27 334 30 580h-77q0 23 10 43q67 8 121 32q14 0 25 -12.5t11 -32.5q-30 -407 -30 -580h68q27 0 58 39q55 70 97 188q13 202 22 294q46 15 91 15q-16 -77 -17 -108q-12 -127 -22 -358l-3 -70h70z" />
    <glyph glyph-name="X" unicode="X" horiz-adv-x="492" 
d="M-12 608q0 23 10 43q57 8 111 32q30 -11 53 -51q27 -48 41 -88q27 -72 43 -122l186 259q24 0 47 -7.5t34 -15.5l11 -8q-67 -57 -112 -119l-138 -189l17 -51q11 -33 18.5 -53.5l17.5 -49.5t18 -47.5l17 -37.5q19 -37 34 -43h98q0 -23 -10 -43q-67 -8 -121 -32
q-30 12 -58.5 62.5t-44 94t-40.5 125.5l-199 -277q-24 0 -47 8t-34 16l-11 7q62 49 106 110l159 219q-38 117 -65 182t-50 76h-91z" />
    <glyph glyph-name="Y" unicode="Y" horiz-adv-x="543" 
d="M-5 -217q0 24 9 42h291q45 22 79 141q22 75 32 207l-10 6q-28 -65 -89 -125q-32 -31 -76.5 -50t-86.5 -19t-67.5 4.5t-36.5 10.5q-25 13 -26 22l-1 5q5 45 15 126.5l15 124t11 106.5q14 127 19 241h-74q0 23 10 43q62 8 116 32q14 0 25 -12.5t11 -32.5q-44 -279 -63 -595
h89q47 0 116.5 71.5t103.5 146.5q30 254 50 388q50 15 95 15q-19 -77 -28.5 -147.5t-24.5 -203l-19.5 -170.5t-13.5 -99.5t-16 -87.5l-19 -68t-25.5 -58l-32.5 -39.5t-43 -31.5q-63 -21 -116 -21q-101 0 -190 21z" />
    <glyph glyph-name="Z" unicode="Z" horiz-adv-x="588" 
d="M124 549q-28 7 -45 25q23 81 23 116q34 11 115 11t268 -33l16 22q39 0 67 -14l10 -4v-10l-432 -602h342q17 26 24 63l3 13q28 -7 45 -25q-23 -86 -23 -121q-46 -11 -99 -11q-183 0 -330 27l-12 -16q-20 0 -44.5 7t-33.5 17v10l436 601h-303q-17 -26 -25 -63z" />
    <glyph glyph-name="bracketleft" unicode="[" horiz-adv-x="306" 
d="M319 646h-100q-22 -131 -41.5 -365.5t-20.5 -387.5h87l-3 -32q-89 -11 -171 -11q4 54 20 232q41 443 48 608l185 -12z" />
    <glyph glyph-name="backslash" unicode="\" horiz-adv-x="494" 
d="M24 711q15 5 28 5q30 0 42 -5q21 -91 109.5 -361t172.5 -484l-4 -16l-92 16q-121 439 -256 845z" />
    <glyph glyph-name="bracketright" unicode="]" horiz-adv-x="306" 
d="M11 -106h100q22 131 41.5 365.5t20.5 387.5h-87l3 32q88 11 170 11q-4 -54 -21 -232q-40 -443 -47 -608l-184 10z" />
    <glyph glyph-name="asciicircum" unicode="^" horiz-adv-x="475" 
d="M65 421l187 269l15 -4l163 -255q-26 -38 -42 -51h-10l-137 217l-145 -217q-12 5 -22 20z" />
    <glyph glyph-name="underscore" unicode="_" horiz-adv-x="506" 
d="M167 19q138 0 249 10l16 -14l-13 -53h-343q-5 11 -5 23l5 34h91z" />
    <glyph glyph-name="grave" unicode="`" 
d="M176 760q44 -64 104 -139l20 -25v-7l-49 -19q-28 20 -61 54t-52 58l-19 23v10q25 32 57 45z" />
    <glyph glyph-name="a" unicode="a" horiz-adv-x="546" 
d="M509 60q0 -23 -10 -43q-67 -8 -121 -32q-15 0 -25.5 11t-10.5 34l19 143l-10 6q-37 -90 -75 -139.5t-100 -49.5t-104 45.5t-42 123.5q0 129 77 225t191 96q37 0 84 -29q2 18 4 29q50 15 95 15q-19 -77 -31.5 -166t-24.5 -269h84zM106 187q0 -44 20 -79.5t45 -47.5h48
q58 11 141 210q4 42 16 140h-160q-39 -7 -74.5 -77.5t-35.5 -145.5z" />
    <glyph glyph-name="b" unicode="b" horiz-adv-x="520" 
d="M34 715q0 23 10 43q57 8 111 32q14 0 25 -12.5t11 -32.5l-45 -448l10 -6q37 90 75 139.5t100 49.5t104 -45.5t42 -123.5q0 -129 -77 -225t-191 -96l-156 10h-19q16 67 20 98q21 150 53 617h-73zM401 283q0 44 -20 79.5t-45 47.5h-48q-39 -8 -84 -88q-34 -63 -55 -116
q-3 -47 -15 -146h157q39 7 74.5 77.5t35.5 145.5z" />
    <glyph glyph-name="c" unicode="c" horiz-adv-x="437" 
d="M364 60q0 -23 -10 -43q-106 -27 -152 -27q-86 0 -129.5 44.5t-43.5 130t29.5 153.5t90.5 115t140 47q38 0 69.5 -14t45.5 -26q-21 -37 -34 -90l-5 -17q-20 -9 -49 -9q9 40 9 60t-15 26h-105q-41 -16 -71.5 -75.5t-30.5 -126.5q0 -78 29 -112q25 -29 46 -34l8 -2h178z" />
    <glyph glyph-name="d" unicode="d" horiz-adv-x="555" 
d="M514 60q0 -23 -10 -43q-67 -8 -121 -32q-15 0 -25.5 11t-10.5 34l19 143l-10 6q-37 -90 -75 -139.5t-100 -49.5t-104 45.5t-42 123.5q0 129 77 225t191 96q37 0 87 -31q15 146 20 266h-77q0 23 10 43q57 8 111 32q14 0 25 -12.5t11 -32.5q-33 -279 -59 -685h83zM111 187
q0 -44 20 -79.5t45 -47.5h48q61 12 146 220q1 8 15 130h-164q-39 -7 -74.5 -77.5t-35.5 -145.5z" />
    <glyph glyph-name="e" unicode="e" horiz-adv-x="446" 
d="M381 60q0 -23 -10 -43q-106 -27 -152 -27q-172 0 -172 187q0 69 30 137.5t91.5 117t139.5 48.5q49 0 72 -25t23 -61q0 -180 -282 -186q0 -137 82 -148h178zM333 369q0 33 -28 41h-92q-33 -13 -57 -57.5t-32 -100.5q115 4 162 33.5t47 83.5z" />
    <glyph glyph-name="f" unicode="f" horiz-adv-x="309" 
d="M301 470q0 -24 -10 -60h-107l-31 -410q-49 -15 -94 -15q16 67 23.5 124t29.5 301h-59q0 23 10 43q5 0 16 5t19 12q19 17 25 49q8 76 26.5 130.5t40.5 80.5q43 50 82 50q26 0 82 -16l18 -6q0 -23 -10 -43h-106q-45 -57 -59 -181l-8 -69z" />
    <glyph glyph-name="g" unicode="g" horiz-adv-x="525" 
d="M14 -217q0 24 9 42h228q45 22 79 141q22 75 32 207l-9 5q-37 -90 -75 -139t-100 -49t-104 45.5t-42 123.5q0 129 77 225t191 96q38 0 83 -28l4 28q50 15 95 15q-19 -77 -25 -119.5t-13.5 -115.5l-12.5 -120.5t-14 -106t-20 -95t-31 -75t-46 -59.5q-60 -49 -157 -49
q-41 0 -122 21zM108 187q0 -44 20 -79.5t45 -47.5h48q59 11 140 207q4 47 16 143h-159q-39 -7 -74.5 -77.5t-35.5 -145.5z" />
    <glyph glyph-name="h" unicode="h" horiz-adv-x="597" 
d="M57 715q0 23 10 43q57 8 111 32q14 0 25 -12.5t11 -32.5l-45 -448l10 -6q31 71 92 130t138 59q37 0 59 -10t26 -20l3 -10q-26 -221 -31 -380h80q0 -23 -10 -43q-67 -8 -121 -32q-15 0 -25.5 11t-10.5 34q22 140 38 380h-61q-40 0 -95 -62.5t-89 -137.5q-10 -124 -23 -210
q-49 -15 -94 -15q16 67 20 98q19 138 55 632h-73z" />
    <glyph glyph-name="i" unicode="i" horiz-adv-x="287" 
d="M33 410q0 23 10 43q57 8 111 32q14 0 25 -12.5t11 -32.5q-23 -195 -31 -380h80q0 -23 -10 -43q-67 -8 -121 -32q-15 0 -25.5 11t-10.5 34q22 140 38 380h-77zM136 670.5q19 9.5 39 9.5t31.5 -9t11.5 -20l-5 -36q-11 -30 -64 -30q-20 0 -30.5 9t-10.5 21l4 31
q5 15 24 24.5z" />
    <glyph glyph-name="j" unicode="j" horiz-adv-x="243" 
d="M-40 -230q53 62 84.5 125.5t41.5 137.5t24 377h-87l10 43q67 8 121 32q14 0 24.5 -12.5t11.5 -32.5q-7 -87 -12 -170q-10 -161 -16 -210q-26 -215 -186 -320h-9q-7 14 -7 30zM136 670.5q19 9.5 39 9.5t31.5 -9t11.5 -20l-5 -36q-11 -30 -64 -30q-20 0 -30.5 9t-10.5 21
l4 31q5 15 24 24.5z" />
    <glyph glyph-name="k" unicode="k" horiz-adv-x="544" 
d="M53 715q0 23 10 43q57 8 111 32q14 0 25 -12.5t11 -32.5l-50 -448l10 -6q31 71 92 130t138 59q37 0 59 -10t25 -20l4 -10q-8 -90 -63.5 -155t-104.5 -85l92 -140h98q0 -23 -10 -43q-67 -8 -121 -32q-24 0 -37 24l-106 181v10q77 34 120.5 84t51.5 126h-61
q-40 0 -95 -62.5t-89 -137.5q-10 -124 -23 -210q-49 -15 -94 -15q16 67 20 98q20 147 60 632h-73z" />
    <glyph glyph-name="l" unicode="l" horiz-adv-x="269" 
d="M46 715q0 23 10 43q57 8 111 32q14 0 25 -12.5t11 -32.5q-19 -160 -60 -685h78q0 -23 -10 -43q-67 -8 -121 -32q-15 0 -25.5 11t-10.5 34q53 445 69 685h-77z" />
    <glyph glyph-name="m" unicode="m" horiz-adv-x="901" 
d="M708 480q37 0 59 -10t25 -20l4 -10q-23 -193 -31 -380h80q0 -23 -10 -43q-67 -8 -121 -32q-15 0 -25.5 11t-10.5 34q22 140 38 380h-61q-35 0 -87 -70t-90 -151q-11 -147 -17 -189q-49 -15 -94 -15q16 67 20 98q18 87 34 327h-61q-39 0 -84.5 -60.5t-79.5 -139.5
q-10 -124 -23 -210q-49 -15 -94 -15q16 67 28 157t21 268h-73q0 23 10 43q57 8 111 32q14 0 25 -12.5t11 -32.5l-19 -143l10 -6q83 189 210 189q37 0 59 -10t26 -20l3 -10q-1 -27 -13 -143l10 -6q83 189 210 189z" />
    <glyph glyph-name="n" unicode="n" horiz-adv-x="614" 
d="M55 410q0 23 10 43q57 8 111 32q14 0 25 -12.5t11 -32.5l-19 -143l10 -6q31 71 92 130t138 59q37 0 59 -10t26 -20l3 -10q-23 -193 -31 -380h80q0 -23 -10 -43q-67 -8 -121 -32q-15 0 -25.5 11t-10.5 34q22 140 38 380h-61q-40 0 -95 -62.5t-89 -137.5q-10 -124 -23 -210
q-49 -15 -94 -15q16 67 28 157t21 268h-73z" />
    <glyph glyph-name="o" unicode="o" horiz-adv-x="490" 
d="M178 62l8 -2h96q42 16 74 77t32 125q0 79 -28 112q-25 29 -44 34l-8 2h-96q-42 -16 -74 -77t-32 -132.5t26.5 -102.5t45.5 -36zM345.5 39q-60.5 -49 -143.5 -49q-171 0 -171 186q0 70 28.5 138t89 117t143.5 49q171 0 171 -186q0 -70 -28.5 -138t-89 -117z" />
    <glyph glyph-name="p" unicode="p" horiz-adv-x="565" 
d="M252 -10q-37 0 -84 14q-12 -121 -16 -199l79 -17q0 -23 -10 -43q-80 10 -107 10q-47 0 -106 -7l-19 -3q0 23 10 43q37 9 66 27q25 153 36 271.5t23 323.5h-73q0 23 10 43q57 8 111 32q14 0 25 -12.5t11 -32.5l-19 -143l10 -6q37 90 75 139.5t100 49.5t104 -45.5
t42 -123.5q0 -129 -77 -225t-191 -96zM444 283q0 44 -20 79.5t-45 47.5h-48q-62 -12 -143 -215l-15 -135h161q39 7 74.5 77.5t35.5 145.5z" />
    <glyph glyph-name="q" unicode="q" horiz-adv-x="558" 
d="M293 39.5q-38 -49.5 -100 -49.5t-104 45.5t-42 123.5q0 129 77 225t191 96q37 0 84 -29q2 18 4 29q50 15 95 15q-18 -77 -28 -137t-27 -238t-24 -314l83 -18q0 -23 -10 -43q-72 10 -102 10q-54 0 -111 -7l-19 -3q0 23 10 43q50 12 78 36q16 154 26 301l4 48l-10 6
q-37 -90 -75 -139.5zM123 187q0 -44 20 -79.5t45 -47.5h48q58 11 141 210q4 42 16 140h-160q-39 -7 -74.5 -77.5t-35.5 -145.5z" />
    <glyph glyph-name="r" unicode="r" horiz-adv-x="420" 
d="M37 410q0 23 10 43q57 8 111 32q14 0 25 -12.5t11 -32.5l-17 -120l10 -6q25 57 77.5 111.5t101.5 54.5q19 0 34.5 -8t21.5 -16l6 -8q-25 -44 -38 -98l-5 -17q-20 -9 -49 -9q9 41 9 52q0 28 -19 34q-22 0 -69 -56.5t-77 -121.5q-13 -150 -25 -232q-49 -15 -94 -15
q16 67 28 157t21 268h-73z" />
    <glyph glyph-name="s" unicode="s" horiz-adv-x="454" 
d="M315 122q0 19 -10 30.5t-15.5 17t-18.5 14t-18 11.5q-25 15 -48.5 27.5t-36 20.5t-31.5 24q-34 29 -34 75q0 67 50.5 102.5t123.5 35.5t133 -40q-23 -43 -35 -92l-4 -15q-20 -9 -49 -9q9 41 9 52q0 32 -22 39h-97q-48 -7 -48 -56q0 -17 17 -34.5t34 -28t48.5 -26.5
t52.5 -29.5t42.5 -38t21.5 -49.5q0 -78 -51 -120.5t-138 -42.5q-53 0 -90.5 16.5t-48.5 32.5l-11 16q22 38 32 82l3 13q20 9 49 9q-9 -33 -9 -57q0 -35 57 -47h104q38 22 38 67z" />
    <glyph glyph-name="t" unicode="t" horiz-adv-x="333" 
d="M300 470q0 -24 -10 -60h-115q-19 -179 -24 -350h120q0 -23 -10 -43q-87 -8 -141 -32q-56 0 -56 45q32 244 40 380h-52q0 23 10 43q2 1 5.5 2.5t13.5 9.5t18 19q22 31 28 83q32 18 67 18q-5 -57 -13 -120z" />
    <glyph glyph-name="u" unicode="u" horiz-adv-x="607" 
d="M562 60q0 -23 -10 -43q-67 -8 -121 -32q-15 0 -25.5 11t-10.5 34l19 143l-10 6q-31 -71 -92 -130t-138 -59q-37 0 -59 10t-25 20l-4 10q22 197 30 380h-69q0 23 10 43q57 8 111 32q14 0 25 -12.5t11 -32.5q-22 -140 -38 -380h61q41 0 97 65t88 140q14 128 27 215
q50 15 95 15q-19 -77 -31.5 -166t-24.5 -269h84z" />
    <glyph glyph-name="v" unicode="v" horiz-adv-x="523" 
d="M170 60h95q81 28 119 152q17 56 17 120.5t-24 115.5q40 37 108 37q0 -246 -85 -370.5t-198 -124.5q-40 0 -68 10t-36 20l-8 10q20 254 22 380h-71q0 23 10 43q57 8 111 32q14 0 25 -12t11 -33q-28 -207 -28 -380z" />
    <glyph glyph-name="w" unicode="w" horiz-adv-x="766" 
d="M512 60q39 0 73 32.5t51.5 95t17.5 128.5t-31 132q4 4 11 10t33.5 16.5t56.5 10.5q0 -256 -75 -389q-60 -106 -184 -106q-37 0 -60 10t-27 20l-5 10l12 143l-10 6l-14.5 -34t-16.5 -37.5t-17.5 -34t-23 -33.5t-27.5 -25q-31 -25 -74 -25t-66 10t-28 20l-4 10
q20 254 22 380h-71q0 23 10 43q57 8 111 32q14 0 25 -12.5t11 -32.5q-28 -207 -28 -380h45q39 0 80 65t72 150q3 56 13 167q46 15 91 15q-16 -77 -17 -108q-13 -134 -14 -253l-1 -36h59z" />
    <glyph glyph-name="x" unicode="x" horiz-adv-x="518" 
d="M484 60q0 -23 -10 -43q-67 -8 -121 -32q-34 12 -56 54.5t-56 142.5l-146 -197q-24 0 -43.5 7.5t-27.5 15.5l-7 7q55 43 77 71l125 162l-11 33l-10.5 32t-9.5 26.5t-10 24.5t-10 19q-10 19 -22 27h-91q0 23 10 43q57 8 111 32q32 -13 54.5 -52.5t47.5 -119.5l131 172
q40 0 70 -17l10 -5q-57 -49 -79 -80l-111 -137q53 -170 87 -186h98z" />
    <glyph glyph-name="y" unicode="y" horiz-adv-x="571" 
d="M58 -217q0 19 9 42h228q45 22 79 141q22 75 32 207l-10 6q-31 -71 -92 -130t-138 -59q-37 0 -59 10t-25 20l-4 10q23 204 33 380h-69q0 23 10 43q57 8 111 32q14 0 25 -12.5t11 -32.5q-25 -140 -41 -380h61q41 0 97 65t88 140q14 128 27 215q50 15 95 15
q-19 -77 -25 -119.5t-13.5 -115.5l-12.5 -120.5t-14 -106t-20 -95t-31 -75t-46 -59.5q-60 -49 -157 -49q-41 0 -122 21z" />
    <glyph glyph-name="z" unicode="z" horiz-adv-x="474" 
d="M128 334q-28 7 -45 25q23 80 23 115q3 6 55.5 6t212.5 -28l23 28q40 0 62 -18v-10l-318 -392h211q17 26 24 63l3 13q28 -7 45 -25q-23 -80 -23 -115q-9 -6 -91.5 -6t-205.5 24l-19 -24q-41 0 -63 24v10l317 386h-184q-17 -26 -25 -63z" />
    <glyph glyph-name="braceleft" unicode="{" horiz-adv-x="315" 
d="M250 690q33 0 70 -10l13 -4l-4 -25h-51q-22 -5 -32 -14.5t-14 -29.5t-11.5 -99t-14 -114t-29 -65.5t-43.5 -44.5q21 -13 39 -39.5t18 -62.5t-10 -132.5t-10 -116.5q0 -32 31 -43h52l-4 -26q-38 -13 -73.5 -13t-54 17.5t-18.5 47t11.5 113.5t11.5 122.5t-18.5 64
t-36.5 36.5l-18 11q0 23 10 43q8 5 19 13.5t33 36.5t27 56q14 51 17.5 120.5t7.5 90.5q19 67 82 67z" />
    <glyph glyph-name="bar" unicode="|" horiz-adv-x="424" 
d="M154 -200l-28 5q10 61 39 397.5t29 477.5l78 16l14 -16q-17 -100 -55 -456.5t-38 -418.5q-18 -5 -39 -5z" />
    <glyph glyph-name="braceright" unicode="}" horiz-adv-x="335" 
d="M73 -149q-33 0 -71 11l-12 3l4 25h51q22 5 32 14.5t14 29.5t11.5 99t14 114t29 65.5t43.5 44.5q-21 13 -39 39.5t-18 62.5t10 132.5t10 116.5q0 32 -31 43h-52l4 26q38 13 73.5 13t54 -17.5t18.5 -47t-11.5 -113.5t-11.5 -122.5t18 -64t36 -36.5l19 -11q0 -23 -10 -43
q-8 -5 -19 -13.5t-33 -36.5t-27 -56q-14 -51 -17.5 -120.5t-7.5 -90.5q-19 -67 -82 -67z" />
    <glyph glyph-name="asciitilde" unicode="~" horiz-adv-x="474" 
d="M376 269q-21 -7 -53 -7t-96.5 19t-73.5 19h-23q-11 -12 -19 -31h-37l-7 8l17 88q21 7 51.5 7t96.5 -19t75 -19h23q11 12 19 31h37l7 -8z" />
    <glyph glyph-name="exclamdown" unicode="&#xa1;" horiz-adv-x="259" 
d="M182 364.5q-19 -9.5 -39 -9.5t-31.5 9t-11.5 20l5 36q11 30 64 30q20 0 30.5 -9t10.5 -21l-4 -31q-5 -15 -24 -24.5zM149 274l23 -5q-8 -49 -18 -206t-10 -303l-78 -16l-14 16q20 117 41.5 284.5t21.5 224.5q13 5 34 5z" />
    <glyph glyph-name="cent" unicode="&#xa2;" horiz-adv-x="437" 
d="M157 -60l8 61q-68 8 -102 48.5t-34 130t48.5 173t131.5 113.5q2 26 2 71l71 16l14 -16l-9 -57q39 0 71 -14t46 -26q-21 -37 -34 -90l-5 -17q-20 -9 -49 -9q9 40 9 60t-15 26h-34q-30 -203 -43 -340h131q0 -23 -10 -43q-75 -20 -126 -26q-4 -42 -4 -61q-18 -5 -39 -5z
M103 208q0 -117 71 -136q20 180 32 338q-42 -16 -72.5 -75.5t-30.5 -126.5z" />
    <glyph glyph-name="sterling" unicode="&#xa3;" horiz-adv-x="547" 
d="M196 267q-11 -110 -16 -185q19 0 77 -15t93 -15h25l25 24h31l-14 -77q-44 -19 -77 -19t-100 18t-93 18h-12l-25 -26h-49l42 86q20 168 20 191h-60q-5 11 -5 23l5 34h66q7 70 16 131q12 80 66 121t110 41t88 -35.5t32 -86.5q-11 -15 -50 -23h-10q0 28 -17.5 61.5
t-33.5 35.5h-45q-24 -11 -42 -39.5t-24.5 -64.5t-17.5 -141q57 0 153 9l15 -13l-13 -53h-160z" />
    <glyph glyph-name="currency" unicode="&#xa4;" horiz-adv-x="688" 
d="M274 174l9 -3h90q41 16 74.5 69t33.5 111q0 73 -29 108q-27 32 -46 37l-9 3h-90q-41 -16 -74.5 -69t-33.5 -118.5t28 -99t47 -38.5zM222 502q69 62 150.5 62t125.5 -40l69 65q25 -4 40 -33q4 -7 5 -15l-77 -70q16 -40 16 -90q0 -89 -52 -164l79 -81v-15q-14 -30 -55 -52
l-82 84q-62 -47 -139.5 -47t-121.5 41l-75 -69q-17 0 -30 12q-14 15 -14 31l84 77q-16 36 -16 101.5t40 134.5l-64 66v15q21 38 54 53z" />
    <glyph glyph-name="yen" unicode="&#xa5;" horiz-adv-x="543" 
d="M244 0q-24 -10 -42 -10q-29 0 -49 10q15 71 19 99h-109q-5 10 -5 22l5 32h117q6 48 9 93h-117q-5 10 -5 22l5 32h118l-122 293q33 24 79 24q60 -172 107 -280l160 280q36 0 49 -11q-81 -126 -180 -305q46 1 119 8l15 -13l-13 -50h-131l-13 -93q52 1 132 9l15 -13l-12 -50
h-141q-6 -45 -10 -99z" />
    <glyph glyph-name="brokenbar" unicode="&#xa6;" horiz-adv-x="429" 
d="M195 286l-24 5q23 184 23 389l78 16l14 -16q-41 -244 -50 -389q-20 -5 -41 -5zM120 -195q9 52 24.5 185.5t18.5 201.5q17 5 38 5l28 -5q-42 -308 -42 -387q-18 -5 -39 -5z" />
    <glyph glyph-name="section" unicode="&#xa7;" horiz-adv-x="455" 
d="M409 593q-4 -22 -18 -44h-172q-17 -5 -30 -24t-13 -44.5t22 -51t53 -48l62.5 -46.5t53.5 -57.5t22 -71.5q0 -108 -100 -142q34 -41 34 -87q0 -63 -46.5 -112.5t-142.5 -49.5q-54 0 -94 18l-14 6q4 22 18 44h172q43 14 43 66q0 32 -33.5 64.5t-73 57.5t-73 66t-33.5 87
q0 108 100 142q-35 38 -35 93.5t47 106.5t143 51q54 0 95 -18zM234 297l-37 26h-48q-32 -30 -32 -80q0 -41 40 -76q23 -20 48.5 -37t32.5 -22h47q32 30 32 73t-26.5 69t-56.5 47z" />
    <glyph glyph-name="dieresis" unicode="&#xa8;" 
d="M89 671.5q19 9.5 39 9.5t31.5 -9t11.5 -20l-5 -36q-11 -30 -64 -30q-20 0 -30.5 9t-10.5 21l4 31q5 15 24 24.5zM287 671.5q19 9.5 39 9.5t31.5 -9t11.5 -20l-5 -36q-11 -30 -64 -30q-20 0 -30.5 9t-10.5 21l4 31q5 15 24 24.5z" />
    <glyph glyph-name="copyright" unicode="&#xa9;" horiz-adv-x="704" 
d="M451 264q0 -16 -8 -40q-74 -19 -106 -19q-133 0 -133 132q0 81 55 147.5t139 66.5q27 0 53 -10t33 -18q-16 -29 -24 -66l-2 -13q-21 -6 -41 -6q6 28 6 42t-9 19h-75q-30 -11 -51.5 -52t-21.5 -83t15 -65.5t29 -28.5l15 -6h126zM460 93q-73 -33 -170 -33t-172 67.5
t-75 174.5q0 154 87 262q44 53 117 84.5t173 31.5t172.5 -64t72.5 -175q0 -148 -89 -260q-43 -55 -116 -88zM158.5 507q-48.5 -78 -48.5 -161.5t41.5 -145.5t119.5 -76h151q83 39 129.5 115t46.5 161t-38 147.5t-117 77.5h-153q-83 -40 -131.5 -118z" />
    <glyph glyph-name="ordfeminine" unicode="&#xaa;" horiz-adv-x="342" 
d="M312 445q0 -18 -13 -35q-42 -6 -75 -19q-9 0 -16.5 7t-7.5 19l11 84l-5 4q-21 -53 -44 -82t-60.5 -29t-61 24t-23.5 74q0 76 45 132t113 56q18 0 49 -12q0 5 2 13q37 9 63 9q-22 -97 -33 -245h56zM93.5 588q-20.5 -37 -20.5 -71q0 -66 30 -82h14q42 10 96 149l6 51h-77
q-28 -10 -48.5 -47z" />
    <glyph glyph-name="guillemotleft" unicode="&#xab;" horiz-adv-x="622" 
d="M164 261l176 -108v-18l-25 -28q-47 35 -109 71.5t-100 55.5l-39 19l4 40q65 32 130.5 76t98.5 78l61 -35v-18q-33 -32 -93 -73t-104 -60zM402 257l176 -108v-18l-25 -28q-47 35 -109 71.5t-100 55.5l-39 19l4 40q65 32 130.5 76t98.5 78l61 -35v-18q-33 -32 -93 -73
t-104 -60z" />
    <glyph glyph-name="logicalnot" unicode="&#xac;" horiz-adv-x="632" 
d="M531 169q-14 -5 -35.5 -5t-21.5 6l13 116h-385q-5 21 -5 33l5 34h181q138 0 249 10l16 -14q-13 -73 -16 -151z" />
    <glyph glyph-name="registered" unicode="&#xae;" horiz-adv-x="704" 
d="M460 93q-73 -33 -170 -33t-172 67.5t-75 174.5q0 154 87 262q44 53 117 84.5t173 31.5t172.5 -64t72.5 -175q0 -148 -89 -260q-43 -55 -116 -88zM158.5 507q-48.5 -78 -48.5 -161.5t41.5 -145.5t119.5 -76h151q83 39 129.5 115t46.5 161t-38 147.5t-117 77.5h-153
q-83 -40 -131.5 -118zM308 344q-5 -80 -5 -97l29 -4l-5 -31q-50 3 -68 3h-11l-35 -3l4 31q13 5 25 14q7 63 21 266l-26 5l5 29q31 -2 53 -2h14l66 4q48 0 80 -23.5t32 -64t-25.5 -70t-65.5 -44.5q19 -43 37 -69t26 -41l29 -6l-6 -31q-51 3 -82 3q-14 36 -62 131h-30z
M410.5 405q18.5 22 18.5 47q0 55 -41 63h-66q-7 -61 -12 -139h49q33 7 51.5 29z" />
    <glyph glyph-name="macron" unicode="&#xaf;" horiz-adv-x="479" 
d="M193 660q88 0 199 10l16 -14l-13 -53h-293q-5 11 -5 23l5 34h91z" />
    <glyph glyph-name="degree" unicode="&#xb0;" horiz-adv-x="232" 
d="M112 670q37 0 60.5 -20t23.5 -63.5t-29.5 -80t-82.5 -36.5q-37 0 -60.5 20t-23.5 63.5t29.5 80t82.5 36.5zM57 605q-11 -18 -11 -40.5t10.5 -36t23.5 -16.5h33q15 5 26 23t11 40.5t-10.5 36t-23.5 16.5h-33q-15 -5 -26 -23z" />
    <glyph glyph-name="plusminus" unicode="&#xb1;" horiz-adv-x="473" 
d="M223 561q14 5 30.5 5t26.5 -5l-11 -127q68 5 112 9l16 -14l-13 -53h-119l-10 -119q-14 -5 -35.5 -5t-21.5 6l9 118h-116q-5 11 -5 23l5 34h121zM80 144q-5 17 -5 30.5t5 28.5h91q88 0 199 10l16 -14l-13 -55h-293z" />
    <glyph glyph-name="twosuperior" unicode="&#xb2;" horiz-adv-x="270" 
d="M83 607q-10 0 -24 12q1 31 9 51q42 20 79.5 20t62.5 -19.5t25 -46t-14 -50t-30.5 -39.5t-49 -44.5t-51.5 -48.5h107q8 12 16 40q16 -2 30 -14q-13 -50 -14 -72q-32 -3 -74.5 -3t-94.5 15l-11 -13q-18 4 -36 18v5q33 41 77.5 81.5t66 64t21.5 50.5t-22 35h-51
q-10 -8 -22 -42z" />
    <glyph glyph-name="threesuperior" unicode="&#xb3;" horiz-adv-x="267" 
d="M55 607q-9 0 -23 12q1 31 9 51q41 20 79 20q81 0 81 -68q0 -35 -51 -80q63 -16 63 -81q0 -54 -51 -100t-107 -46q-23 0 -43 10q3 23 15 37h70q24 7 43 33.5t19 50t-16.5 39.5t-38.5 22l-8 -6q-15 0 -25 14v5q28 22 53 49t25 48.5t-21 31.5h-51q-10 -8 -22 -42z" />
    <glyph glyph-name="acute" unicode="&#xb4;" 
d="M242 740q33 -6 70 -25v-10q-74 -89 -142 -135l-49 19v7q72 71 121 144z" />
    <glyph glyph-name="mu" unicode="&#xb5;" horiz-adv-x="607" 
d="M229 -15q-59 0 -89 94l-4 -6l-12 -191q-55 -15 -100 -15q19 77 23 108q24 213 37 433l5 72q55 15 100 15q-16 -54 -23 -108l-10 -153q0 -37 30.5 -100t57.5 -74h40q68 19 127 166q6 38 14.5 129.5t13.5 124.5q50 15 95 15q-19 -77 -26 -129q-17 -128 -29 -306l-4 -60
q-50 -15 -95 -15q12 34 27 145l-10 6q-66 -151 -168 -151z" />
    <glyph glyph-name="mu" unicode="&#x3bc;" horiz-adv-x="607" 
d="M229 -15q-59 0 -89 94l-4 -6l-12 -191q-55 -15 -100 -15q19 77 23 108q24 213 37 433l5 72q55 15 100 15q-16 -54 -23 -108l-10 -153q0 -37 30.5 -100t57.5 -74h40q68 19 127 166q6 38 14.5 129.5t13.5 124.5q50 15 95 15q-19 -77 -26 -129q-17 -128 -29 -306l-4 -60
q-50 -15 -95 -15q12 34 27 145l-10 6q-66 -151 -168 -151z" />
    <glyph glyph-name="paragraph" unicode="&#xb6;" horiz-adv-x="833" 
d="M236 281q-87 0 -139 39.5t-52 121.5t42.5 139.5t107.5 85.5t140 28h181q138 0 249 10l16 -14l-13 -53h-105q-20 -142 -54 -459t-34 -374q-18 -5 -39 -5l-28 5q9 60 36.5 369.5t30.5 463.5h-153q-20 -142 -54 -459t-34 -374q-18 -5 -39 -5l-28 5q15 97 46 476h-77z" />
    <glyph glyph-name="periodcentered" unicode="&#xb7;" horiz-adv-x="213" 
d="M75 282.5q19 9.5 39 9.5t31.5 -9t11.5 -20l-5 -36q-11 -30 -64 -30q-20 0 -30.5 9t-10.5 21l4 31q5 15 24 24.5z" />
    <glyph glyph-name="cedilla" unicode="&#xb8;" horiz-adv-x="371" 
d="M125 -190q6 18 20 38q35 0 52 13.5t17 31.5t-11 26h-42l-6 9l23 69q12 3 21 3l18 -3l-6 -31h33q28 -16 28 -50q0 -48 -41.5 -76.5t-105.5 -29.5z" />
    <glyph glyph-name="onesuperior" unicode="&#xb9;" horiz-adv-x="259" 
d="M128 676l48 14l10 -9q-22 -120 -25 -241l71 -15l-8 -31q-69 6 -108 6l-86 -6q0 16 9 30q39 10 63 25q16 96 16 172l1 4l-57 -63q-21 0 -33 17v4q61 50 99 93z" />
    <glyph glyph-name="ordmasculine" unicode="&#xba;" horiz-adv-x="301" 
d="M164 680q47 0 77 -30.5t30 -90t-37.5 -112.5t-107.5 -53q-47 0 -77 30.5t-30 90t37.5 112.5t107.5 53zM71 526q0 -64 47 -87h49q21 8 36.5 40t15.5 69q0 64 -47 87h-49q-21 -8 -36.5 -40t-15.5 -69z" />
    <glyph glyph-name="guillemotright" unicode="&#xbb;" horiz-adv-x="622" 
d="M502 313l-176 108v18l25 28q47 -35 109 -71.5t100 -55.5l39 -19l-4 -40q-65 -32 -130.5 -76t-98.5 -78l-61 35v18q33 32 93 73t104 60zM264 317l-176 108v18l25 28q47 -35 109 -71.5t100 -55.5l39 -19l-4 -40q-65 -32 -130.5 -76t-98.5 -78l-61 35v18q33 32 93 73t104 60
z" />
    <glyph glyph-name="onequarter" unicode="&#xbc;" horiz-adv-x="741" 
d="M142 -15l-35 5q135 172 224 296.5l230 338.5l84 16l4 -16l-220 -293l-241 -342q-26 -5 -46 -5zM654 37q0 -24 -10 -42h-43q-1 -29 -1 -81q-16 -4 -31 -4l-31 4l10 81h-136l-7 7v33l165 227l44 8l7 -8q-11 -98 -18 -225h51zM182 625l48 14l10 -9q-22 -123 -27 -240l71 -15
l-8 -31q-69 6 -108 6l-86 -6q0 16 9 30q40 10 63 26q18 98 18 170l1 4l-57 -63q-21 0 -33 17v4q61 50 99 93zM567 205q-82 -115 -112 -168h98q7 64 14 168z" />
    <glyph glyph-name="onehalf" unicode="&#xbd;" horiz-adv-x="741" 
d="M125 -15l-35 5q135 172 224 296.5l230 338.5l84 16l4 -16l-220 -293l-241 -342q-26 -5 -46 -5zM506 202q-10 0 -24 12q1 31 9 51q42 20 79.5 20t62.5 -19.5t25 -46t-14 -50t-30.5 -39.5t-49 -44.5t-51.5 -48.5h107q8 12 16 40q16 -2 30 -14q-13 -50 -14 -72
q-32 -3 -71.5 -3t-97.5 15q-8 -8 -11 -13q-18 4 -36 18v5q33 41 77.5 81.5t66 64t21.5 50.5t-22 35h-51q-10 -8 -22 -42zM162 625l48 14l10 -9q-22 -123 -27 -240l71 -15l-8 -31q-69 6 -108 6l-86 -6q0 16 9 30q40 10 63 26q18 98 18 170l1 4l-57 -63q-21 0 -33 17v4
q61 50 99 93z" />
    <glyph glyph-name="threequarters" unicode="&#xbe;" horiz-adv-x="741" 
d="M132 -15l-35 5q135 172 224 296.5l230 338.5l84 16l4 -16l-220 -293l-241 -342q-26 -5 -46 -5zM664 37q0 -24 -10 -42h-43q-1 -29 -1 -81q-16 -4 -31 -4l-31 4l10 81h-136l-7 7v33l165 227l44 8l7 -8q-11 -98 -18 -225h51zM96 557q-9 0 -23 12q1 31 9 51q41 20 79 20
q81 0 81 -68q0 -35 -51 -80q63 -16 63 -81q0 -54 -51 -100t-107 -46q-23 0 -43 10q3 23 15 37h70q24 7 43 33.5t19 50t-16.5 39.5t-38.5 22l-8 -6q-15 0 -25 14v5q28 22 53 49t25 48.5t-21 31.5h-51q-10 -8 -22 -42zM577 205q-77 -105 -112 -168h98q7 64 14 168z" />
    <glyph glyph-name="questiondown" unicode="&#xbf;" horiz-adv-x="386" 
d="M300 364.5q-19 -9.5 -39 -9.5t-31.5 9t-11.5 20l5 36q11 30 64 30q20 0 30.5 -9t10.5 -21l-4 -31q-5 -15 -24 -24.5zM83 -12q0 -61 53 -120.5t111 -71.5v-18l-53 -35q-65 20 -122.5 78.5t-57.5 138.5t55.5 135t134.5 55l19 119q13 5 34 5l23 -5l-14 -164l-12 -12h-112
q-59 -31 -59 -105z" />
    <glyph glyph-name="Agrave" unicode="&#xc0;" horiz-adv-x="672" 
d="M682 31q0 -23 -10 -43q-103 7 -140 7l-105 -7q0 23 10 43q29 7 55 20q-31 159 -36 181q-117 3 -154.5 3t-87.5 -4l-88 -180l86 -20q0 -23 -10 -43q-80 7 -117 7l-95 -7q0 23 10 43q32 9 59 28q187 330 299 578l-8 32q43 21 92 21q94 -425 157 -644zM239 283
q47 -3 96.5 -3t109.5 2q-12 57 -66 274q-53 -97 -140 -273zM403 900q47 -70 93 -120l18 -19v-7l-49 -19q-30 20 -60 47t-45 44l-14 17v10q27 35 57 47z" />
    <glyph glyph-name="Aacute" unicode="&#xc1;" horiz-adv-x="672" 
d="M682 31q0 -23 -10 -43q-103 7 -140 7l-105 -7q0 23 10 43q29 7 55 20q-31 159 -36 181q-117 3 -154.5 3t-87.5 -4l-88 -180l86 -20q0 -23 -10 -43q-80 7 -117 7l-95 -7q0 23 10 43q32 9 59 28q187 330 299 578l-8 32q43 21 92 21q94 -425 157 -644zM239 283
q47 -3 96.5 -3t109.5 2q-12 57 -66 274q-53 -97 -140 -273zM432 890q33 -6 70 -25v-10q-63 -74 -131 -120l-49 19v7q61 56 110 129z" />
    <glyph glyph-name="Acircumflex" unicode="&#xc2;" horiz-adv-x="672" 
d="M682 31q0 -23 -10 -43q-103 7 -140 7l-105 -7q0 23 10 43q29 7 55 20q-31 159 -36 181q-117 3 -154.5 3t-87.5 -4l-88 -180l86 -20q0 -23 -10 -43q-80 7 -117 7l-95 -7q0 23 10 43q32 9 59 28q187 330 299 578l-8 32q43 21 92 21q94 -425 157 -644zM239 283
q47 -3 96.5 -3t109.5 2q-12 57 -66 274q-53 -97 -140 -273zM385 878l53 27q47 -74 110 -138v-8l-52 -24q-54 46 -87 97q-40 -46 -100 -84l-44 11v8q89 64 120 111z" />
    <glyph glyph-name="Atilde" unicode="&#xc3;" horiz-adv-x="672" 
d="M682 31q0 -23 -10 -43q-103 7 -140 7l-105 -7q0 23 10 43q29 7 55 20q-31 159 -36 181q-117 3 -154.5 3t-87.5 -4l-88 -180l86 -20q0 -23 -10 -43q-80 7 -117 7l-95 -7q0 23 10 43q32 9 59 28q187 330 299 578l-8 32q43 21 92 21q94 -425 157 -644zM239 283
q47 -3 96.5 -3t109.5 2q-12 57 -66 274q-53 -97 -140 -273zM546 742q-21 -7 -49.5 -7t-81 19t-62.5 19h-23q-11 -12 -19 -31h-37l-7 8l17 88q21 7 48 7t80.5 -19t64.5 -19h23q11 12 19 31h37l7 -8z" />
    <glyph glyph-name="Adieresis" unicode="&#xc4;" horiz-adv-x="672" 
d="M682 31q0 -23 -10 -43q-103 7 -140 7l-105 -7q0 23 10 43q29 7 55 20q-31 159 -36 181q-117 3 -154.5 3t-87.5 -4l-88 -180l86 -20q0 -23 -10 -43q-80 7 -117 7l-95 -7q0 23 10 43q32 9 59 28q187 330 299 578l-8 32q43 21 92 21q94 -425 157 -644zM239 283
q47 -3 96.5 -3t109.5 2q-12 57 -66 274q-53 -97 -140 -273zM282 820.5q19 9.5 39 9.5t31.5 -9t11.5 -20l-5 -36q-11 -30 -64 -30q-20 0 -30.5 9t-10.5 21l4 31q5 15 24 24.5zM480 820.5q19 9.5 39 9.5t31.5 -9t11.5 -20l-5 -36q-11 -30 -64 -30q-20 0 -30.5 9t-10.5 21l4 31
q5 15 24 24.5z" />
    <glyph glyph-name="Aring" unicode="&#xc5;" horiz-adv-x="672" 
d="M682 31q0 -23 -10 -43q-103 7 -140 7l-105 -7q0 23 10 43q29 7 55 20q-31 159 -36 181q-117 3 -154.5 3t-87.5 -4l-88 -180l86 -20q0 -23 -10 -43q-80 7 -117 7l-95 -7q0 23 10 43q32 9 59 28q187 330 299 578l-8 32q43 21 92 21q94 -425 157 -644zM239 283
q47 -3 96.5 -3t109.5 2q-12 57 -66 274q-53 -97 -140 -273zM357 861.5q23 28.5 57.5 28.5t53 -15.5t18.5 -49t-23 -62t-58 -28.5q-71 0 -71 61q0 37 23 65.5zM422 847h-19q-9 -2 -17 -12.5t-8.5 -31t18.5 -24.5h19q9 2 17 12.5t8.5 31t-18.5 24.5z" />
    <glyph glyph-name="AE" unicode="&#xc6;" horiz-adv-x="1058" 
d="M968 680q9 -8 16 -25q-21 -37 -34 -90l-5 -17q-20 -9 -49 -9q9 40 9 60t-15 26h-243q-19 -164 -26 -255h224q16 24 24 54q7 3 20 3l22 -4q-21 -66 -31 -169q-8 -4 -20 -4l-17 3q0 40 -8 67h-217q-9 -122 -15 -260h259q19 28 28 64l3 13q31 -6 42 -21l4 -6
q-20 -50 -26 -110h-375l-95 -7q0 23 10 43q36 11 64 33q13 114 17 163q-99 3 -136 3t-75 -4l-118 -183l71 -17q0 -23 -10 -43q-80 7 -117 7l-95 -7q0 23 10 43q41 12 69 37q253 340 399 566l-45 10q0 23 10 43q80 -7 117 -7h354zM356 282q48 -2 88.5 -2t94.5 2q9 119 21 304
z" />
    <glyph glyph-name="Ccedilla" unicode="&#xc7;" horiz-adv-x="582" 
d="M185 -200q6 18 20 38q35 0 52 13.5t17 31.5t-11 26h-42l-6 9l20 62q-102 4 -160 77.5t-58 183.5q0 139 63 255q68 125 188 174q64 26 126.5 26t102 -18.5t51.5 -42.5q-21 -38 -34 -99l-5 -20q-25 -9 -54 -9q8 22 8 51q0 49 -26 67h-160q-84 -45 -130 -137.5t-46 -186
t35.5 -159t103.5 -82.5h239q0 -23 -10 -43q-111 -29 -193 -35l-5 -26h33q28 -16 28 -50q0 -48 -41.5 -76.5t-105.5 -29.5z" />
    <glyph glyph-name="Egrave" unicode="&#xc8;" horiz-adv-x="574" 
d="M537 680q9 -8 16 -25q-21 -37 -35 -90l-4 -17q-20 -9 -49 -9q9 40 9 60t-15 26h-243q-19 -164 -26 -255h224q16 24 24 54q7 3 20 3l22 -4q-21 -66 -31 -169q-8 -4 -20 -4l-17 3q0 40 -8 67h-217q-9 -122 -15 -260h259q19 28 28 64l3 13q31 -6 42 -21l4 -6
q-20 -50 -26 -110h-375l-95 -7q0 23 10 43q36 11 64 33q26 223 45 557l-75 18q0 23 10 43q64 -7 104 -7h367zM321 900q47 -70 93 -120l18 -19v-7l-49 -19q-30 20 -60 47t-45 44l-14 17v10q27 35 57 47z" />
    <glyph glyph-name="Eacute" unicode="&#xc9;" horiz-adv-x="574" 
d="M537 680q9 -8 16 -25q-21 -37 -35 -90l-4 -17q-20 -9 -49 -9q9 40 9 60t-15 26h-243q-19 -164 -26 -255h224q16 24 24 54q7 3 20 3l22 -4q-21 -66 -31 -169q-8 -4 -20 -4l-17 3q0 40 -8 67h-217q-9 -122 -15 -260h259q19 28 28 64l3 13q31 -6 42 -21l4 -6
q-20 -50 -26 -110h-375l-95 -7q0 23 10 43q36 11 64 33q26 223 45 557l-75 18q0 23 10 43q64 -7 104 -7h367zM384 890q33 -6 70 -25v-10q-63 -74 -131 -120l-49 19v7q61 56 110 129z" />
    <glyph glyph-name="Ecircumflex" unicode="&#xca;" horiz-adv-x="574" 
d="M537 680q9 -8 16 -25q-21 -37 -35 -90l-4 -17q-20 -9 -49 -9q9 40 9 60t-15 26h-243q-19 -164 -26 -255h224q16 24 24 54q7 3 20 3l22 -4q-21 -66 -31 -169q-8 -4 -20 -4l-17 3q0 40 -8 67h-217q-9 -122 -15 -260h259q19 28 28 64l3 13q31 -6 42 -21l4 -6
q-20 -50 -26 -110h-375l-95 -7q0 23 10 43q36 11 64 33q26 223 45 557l-75 18q0 23 10 43q64 -7 104 -7h367zM306 888l53 27q47 -74 110 -138v-8l-52 -24q-54 46 -87 97q-40 -46 -100 -84l-44 11v8q89 64 120 111z" />
    <glyph glyph-name="Edieresis" unicode="&#xcb;" horiz-adv-x="574" 
d="M537 680q9 -8 16 -25q-21 -37 -35 -90l-4 -17q-20 -9 -49 -9q9 40 9 60t-15 26h-243q-19 -164 -26 -255h224q16 24 24 54q7 3 20 3l22 -4q-21 -66 -31 -169q-8 -4 -20 -4l-17 3q0 40 -8 67h-217q-9 -122 -15 -260h259q19 28 28 64l3 13q31 -6 42 -21l4 -6
q-20 -50 -26 -110h-375l-95 -7q0 23 10 43q36 11 64 33q26 223 45 557l-75 18q0 23 10 43q64 -7 104 -7h367zM219 846.5q19 9.5 39 9.5t31.5 -9t11.5 -20l-5 -36q-11 -30 -64 -30q-20 0 -30.5 9t-10.5 21l4 31q5 15 24 24.5zM417 846.5q19 9.5 39 9.5t31.5 -9t11.5 -20
l-5 -36q-11 -30 -64 -30q-20 0 -30.5 9t-10.5 21l4 31q5 15 24 24.5z" />
    <glyph glyph-name="Igrave" unicode="&#xcc;" horiz-adv-x="334" 
d="M272 36q0 -23 -10 -43q-98 7 -128 7q-44 0 -94 -6l-13 -1q0 23 10 43q38 11 66 34q26 225 45 561l-76 13q0 23 10 43q88 -7 125 -7l110 7q0 -23 -10 -43q-47 -8 -75 -31q-26 -217 -44 -562zM190 900q47 -70 94 -120l17 -19v-7l-49 -19q-30 20 -60 47t-44 44l-15 17v10
q27 35 57 47z" />
    <glyph glyph-name="Iacute" unicode="&#xcd;" horiz-adv-x="334" 
d="M272 36q0 -23 -10 -43q-98 7 -128 7q-44 0 -94 -6l-13 -1q0 23 10 43q38 11 66 34q26 225 45 561l-76 13q0 23 10 43q88 -7 125 -7l110 7q0 -23 -10 -43q-47 -8 -75 -31q-26 -217 -44 -562zM239 890q33 -6 70 -25v-10q-63 -74 -131 -120l-49 19v7q61 56 110 129z" />
    <glyph glyph-name="Icircumflex" unicode="&#xce;" horiz-adv-x="334" 
d="M272 36q0 -23 -10 -43q-98 7 -128 7q-44 0 -94 -6l-13 -1q0 23 10 43q38 11 66 34q26 225 45 561l-76 13q0 23 10 43q88 -7 125 -7l110 7q0 -23 -10 -43q-47 -8 -75 -31q-26 -217 -44 -562zM182 878l53 27q47 -74 110 -138v-8l-52 -24q-54 46 -87 97q-40 -46 -100 -84
l-44 11v8q89 64 120 111z" />
    <glyph glyph-name="Idieresis" unicode="&#xcf;" horiz-adv-x="334" 
d="M272 36q0 -23 -10 -43q-98 7 -128 7q-44 0 -94 -6l-13 -1q0 23 10 43q38 11 66 34q26 225 45 561l-76 13q0 23 10 43q88 -7 125 -7l110 7q0 -23 -10 -43q-47 -8 -75 -31q-26 -217 -44 -562zM81 847.5q19 9.5 39 9.5t31.5 -9t11.5 -20l-5 -36q-11 -30 -64 -30
q-20 0 -30.5 9t-10.5 21l4 31q5 15 24 24.5zM279 847.5q19 9.5 39 9.5t31.5 -9t11.5 -20l-5 -36q-11 -30 -64 -30q-20 0 -30.5 9t-10.5 21l4 31q5 15 24 24.5z" />
    <glyph glyph-name="Eth" unicode="&#xd0;" horiz-adv-x="657" 
d="M195 680l175 10q54 0 99 -20t75 -52t51 -74q39 -77 39 -161q0 -179 -105 -286t-284 -107q-31 0 -69.5 5t-52.5 5l-103 -7q0 23 10 43q40 12 68 36q14 128 23 230h-82q-5 11 -5 23l5 34h86q0 1 17 267l-74 18q0 23 10 43q80 -7 117 -7zM352 625h-135q-17 -142 -23 -266
q39 1 135 10l16 -14l-13 -53h-141l-10 -242h193q77 30 128.5 120t51.5 184.5t-57 177.5t-145 83z" />
    <glyph glyph-name="Ntilde" unicode="&#xd1;" horiz-adv-x="672" 
d="M254 36q0 -23 -10 -43q-90 7 -127 7l-95 -7q0 23 10 43q39 11 67 35q18 132 25 216.5l14.5 183.5t12.5 155l-83 18q0 23 10 43q64 -7 104 -7h54q87 -177 178 -337l102 -180q30 286 38 463l-85 18q0 23 10 43q67 -7 101 -7q54 0 109 6l15 1q0 -23 -10 -43q-46 -8 -74 -30
q-36 -295 -48 -614l-14 -10l-59 10l-289 537q-15 -121 -38 -484zM532 761q-21 -7 -49.5 -7t-81 19t-62.5 19h-23q-11 -12 -19 -31h-37l-7 8l17 88q21 7 48 7t80.5 -19t64.5 -19h23q11 12 19 31h37l7 -8z" />
    <glyph glyph-name="Ograve" unicode="&#xd2;" horiz-adv-x="687" 
d="M38 241q0 140 62 254q68 125 187 173q65 27 141 27q106 0 167.5 -73.5t61.5 -186.5q0 -174 -95 -309q-46 -66 -122.5 -106t-177.5 -40t-162.5 74t-61.5 187zM168 487.5q-46 -92.5 -46 -186t35.5 -159t103.5 -82.5h139q84 45 128.5 134t44.5 182t-34.5 160t-100.5 89h-140
q-84 -45 -130 -137.5zM375 900q47 -70 93 -120l18 -19v-7l-49 -19q-30 20 -60 47t-45 44l-14 17v10q27 35 57 47z" />
    <glyph glyph-name="Oacute" unicode="&#xd3;" horiz-adv-x="687" 
d="M38 241q0 140 62 254q68 125 187 173q65 27 141 27q106 0 167.5 -73.5t61.5 -186.5q0 -174 -95 -309q-46 -66 -122.5 -106t-177.5 -40t-162.5 74t-61.5 187zM168 487.5q-46 -92.5 -46 -186t35.5 -159t103.5 -82.5h139q84 45 128.5 134t44.5 182t-34.5 160t-100.5 89h-140
q-84 -45 -130 -137.5zM435 890q33 -6 70 -25v-10q-63 -74 -131 -120l-49 19v7q61 56 110 129z" />
    <glyph glyph-name="Ocircumflex" unicode="&#xd4;" horiz-adv-x="687" 
d="M38 241q0 140 62 254q68 125 187 173q65 27 141 27q106 0 167.5 -73.5t61.5 -186.5q0 -174 -95 -309q-46 -66 -122.5 -106t-177.5 -40t-162.5 74t-61.5 187zM168 487.5q-46 -92.5 -46 -186t35.5 -159t103.5 -82.5h139q84 45 128.5 134t44.5 182t-34.5 160t-100.5 89h-140
q-84 -45 -130 -137.5zM375 878l53 27q47 -74 110 -138v-8l-52 -24q-54 46 -87 97q-40 -46 -100 -84l-44 11v8q89 64 120 111z" />
    <glyph glyph-name="Otilde" unicode="&#xd5;" horiz-adv-x="687" 
d="M38 241q0 140 62 254q68 125 187 173q65 27 141 27q106 0 167.5 -73.5t61.5 -186.5q0 -174 -95 -309q-46 -66 -122.5 -106t-177.5 -40t-162.5 74t-61.5 187zM168 487.5q-46 -92.5 -46 -186t35.5 -159t103.5 -82.5h139q84 45 128.5 134t44.5 182t-34.5 160t-100.5 89h-140
q-84 -45 -130 -137.5zM533 760q-21 -7 -49.5 -7t-81 19t-62.5 19h-23q-11 -12 -19 -31h-37l-7 8l17 88q21 7 48 7t80.5 -19t64.5 -19h23q11 12 19 31h37l7 -8z" />
    <glyph glyph-name="Odieresis" unicode="&#xd6;" horiz-adv-x="687" 
d="M38 241q0 140 62 254q68 125 187 173q65 27 141 27q106 0 167.5 -73.5t61.5 -186.5q0 -174 -95 -309q-46 -66 -122.5 -106t-177.5 -40t-162.5 74t-61.5 187zM168 487.5q-46 -92.5 -46 -186t35.5 -159t103.5 -82.5h139q84 45 128.5 134t44.5 182t-34.5 160t-100.5 89h-140
q-84 -45 -130 -137.5zM279 848.5q19 9.5 39 9.5t31.5 -9t11.5 -20l-5 -36q-11 -30 -64 -30q-20 0 -30.5 9t-10.5 21l4 31q5 15 24 24.5zM477 848.5q19 9.5 39 9.5t31.5 -9t11.5 -20l-5 -36q-11 -30 -64 -30q-20 0 -30.5 9t-10.5 21l4 31q5 15 24 24.5z" />
    <glyph glyph-name="multiply" unicode="&#xd7;" horiz-adv-x="520" 
d="M381 184l-128 132l-146 -133q-13 7 -21 16l-11 20l143 133l-114 118v10q18 30 46 49l123 -127l137 127q26 -13 33 -39l-136 -124l120 -123v-10q-14 -26 -46 -49z" />
    <glyph glyph-name="Oslash" unicode="&#xd8;" horiz-adv-x="687" 
d="M267 -20l-23 1l-16 -47q-18 -5 -35 -5l-30 5l23 59q-70 25 -109 92t-39 153.5t24.5 165.5t72 145t125.5 106t175 40l17 48l79 15l4 -16q-11 -24 -26 -61q70 -25 109 -91.5t39 -153t-24.5 -166t-70.5 -145t-122.5 -105.5t-172.5 -40zM573 385q0 69 -24.5 128.5t-71.5 91.5
q-88 -221 -205 -545h128q84 45 128.5 134t44.5 191zM122 292q0 -69 24.5 -127t71.5 -87l193 547h-113q-84 -45 -130 -137.5t-46 -195.5z" />
    <glyph glyph-name="Ugrave" unicode="&#xd9;" horiz-adv-x="703" 
d="M461 638q0 23 12 43q72 -7 109 -7l97 7q0 -23 -10 -43q-39 -4 -71 -37q-23 -293 -38 -380.5t-30.5 -125t-46.5 -64t-77.5 -36.5t-120.5 -10q-96 0 -148 48t-52 107.5t12.5 223t17.5 266.5l-80 14q0 23 10 43q93 -7 123 -7q44 0 98 6l14 1q0 -23 -10 -43q-46 -8 -75 -30
q-26 -208 -26 -442q0 -49 39.5 -80.5t89.5 -31.5h135q47 29 64 109t28 190.5t13 184.5l3 74zM356 900q47 -70 94 -120l17 -19v-7l-49 -19q-30 20 -60 47t-44 44l-15 17v10q27 35 57 47z" />
    <glyph glyph-name="Uacute" unicode="&#xda;" horiz-adv-x="703" 
d="M461 638q0 23 12 43q72 -7 109 -7l97 7q0 -23 -10 -43q-39 -4 -71 -37q-23 -293 -38 -380.5t-30.5 -125t-46.5 -64t-77.5 -36.5t-120.5 -10q-96 0 -148 48t-52 107.5t12.5 223t17.5 266.5l-80 14q0 23 10 43q93 -7 123 -7q44 0 98 6l14 1q0 -23 -10 -43q-46 -8 -75 -30
q-26 -208 -26 -442q0 -49 39.5 -80.5t89.5 -31.5h135q47 29 64 109t28 190.5t13 184.5l3 74zM423 890q33 -6 70 -25v-10q-63 -74 -131 -120l-49 19v7q61 56 110 129z" />
    <glyph glyph-name="Ucircumflex" unicode="&#xdb;" horiz-adv-x="703" 
d="M461 638q0 23 12 43q72 -7 109 -7l97 7q0 -23 -10 -43q-39 -4 -71 -37q-23 -293 -38 -380.5t-30.5 -125t-46.5 -64t-77.5 -36.5t-120.5 -10q-96 0 -148 48t-52 107.5t12.5 223t17.5 266.5l-80 14q0 23 10 43q93 -7 123 -7q44 0 98 6l14 1q0 -23 -10 -43q-46 -8 -75 -30
q-26 -208 -26 -442q0 -49 39.5 -80.5t89.5 -31.5h135q47 29 64 109t28 190.5t13 184.5l3 74zM353 878l53 27q47 -74 110 -138v-8l-52 -24q-54 46 -87 97q-40 -46 -100 -84l-44 11v8q89 64 120 111z" />
    <glyph glyph-name="Udieresis" unicode="&#xdc;" horiz-adv-x="703" 
d="M461 638q0 23 12 43q72 -7 109 -7l97 7q0 -23 -10 -43q-39 -4 -71 -37q-23 -293 -38 -380.5t-30.5 -125t-46.5 -64t-77.5 -36.5t-120.5 -10q-96 0 -148 48t-52 107.5t12.5 223t17.5 266.5l-80 14q0 23 10 43q93 -7 123 -7q44 0 98 6l14 1q0 -23 -10 -43q-46 -8 -75 -30
q-26 -208 -26 -442q0 -49 39.5 -80.5t89.5 -31.5h135q47 29 64 109t28 190.5t13 184.5l3 74zM246 847.5q19 9.5 39 9.5t31.5 -9t11.5 -20l-5 -36q-11 -30 -64 -30q-20 0 -30.5 9t-10.5 21l4 31q5 15 24 24.5zM444 847.5q19 9.5 39 9.5t31.5 -9t11.5 -20l-5 -36
q-11 -30 -64 -30q-20 0 -30.5 9t-10.5 21l4 31q5 15 24 24.5z" />
    <glyph glyph-name="Yacute" unicode="&#xdd;" horiz-adv-x="543" 
d="M-5 -217q0 24 9 42h291q45 22 79 141q22 75 32 207l-10 6q-28 -65 -89 -125q-32 -31 -76.5 -50t-86.5 -19t-67.5 4.5t-36.5 10.5q-25 13 -26 22l-1 5q5 45 15 126.5l15 124t11 106.5q14 127 19 241h-74q0 23 10 43q62 8 116 32q14 0 25 -12.5t11 -32.5q-44 -279 -63 -595
h89q47 0 116.5 71.5t103.5 146.5q30 254 50 388q50 15 95 15q-19 -77 -28.5 -147.5t-24.5 -203l-19.5 -170.5t-13.5 -99.5t-16 -87.5l-19 -68t-25.5 -58l-32.5 -39.5t-43 -31.5q-63 -21 -116 -21q-101 0 -190 21zM373 890q33 -6 70 -25v-10q-63 -74 -131 -120l-49 19v7
q61 56 110 129z" />
    <glyph glyph-name="Thorn" unicode="&#xde;" horiz-adv-x="580" 
d="M52 644q0 23 10 43q93 -7 124 -7q43 0 96 6l15 1q0 -23 -10 -43q-47 -8 -75 -31l-6 -50l139 16q87 0 139 -39.5t52 -127.5q0 -113 -84.5 -177.5t-202.5 -64.5h-75l-6 -119l84 -15q0 -23 -10 -43q-103 7 -133 7q-44 0 -89 -6l-13 -1q0 23 10 43q38 11 66 34q26 225 45 561
zM420.5 279.5q37.5 45.5 37.5 98.5t-22 90t-63 46h-172q-14 -129 -24 -293h138q68 13 105.5 58.5z" />
    <glyph glyph-name="germandbls" unicode="&#xdf;" horiz-adv-x="488" 
d="M174 -10q2 44 15 70h95q87 47 87 154q0 42 -21 73.5t-54 35.5h-71l-7 10l8 64q113 65 113 157q0 53 -34 71h-66q-51 -31 -59 -101q-19 -158 -32 -321t-21 -218q-43 -11 -75 -15h-19q16 67 25 131.5t23 222t14 161.5q8 75 47 125q66 88 167 88q52 0 79.5 -26.5t27.5 -80
t-33 -105.5t-85 -89q68 0 109 -37t41 -105q0 -88 -50 -158t-137 -107h-87z" />
    <glyph glyph-name="agrave" unicode="&#xe0;" horiz-adv-x="546" 
d="M509 60q0 -23 -10 -43q-67 -8 -121 -32q-15 0 -25.5 11t-10.5 34l19 143l-10 6q-37 -90 -75 -139.5t-100 -49.5t-104 45.5t-42 123.5q0 129 77 225t191 96q37 0 84 -29q2 18 4 29q50 15 95 15q-19 -77 -31.5 -166t-24.5 -269h84zM106 187q0 -44 20 -79.5t45 -47.5h48
q58 11 141 210q4 42 16 140h-160q-39 -7 -74.5 -77.5t-35.5 -145.5zM249 760q44 -64 104 -139l20 -25v-7l-49 -19q-28 20 -61 54t-52 58l-19 23v10q25 32 57 45z" />
    <glyph glyph-name="aacute" unicode="&#xe1;" horiz-adv-x="546" 
d="M509 60q0 -23 -10 -43q-67 -8 -121 -32q-15 0 -25.5 11t-10.5 34l19 143l-10 6q-37 -90 -75 -139.5t-100 -49.5t-104 45.5t-42 123.5q0 129 77 225t191 96q37 0 84 -29q2 18 4 29q50 15 95 15q-19 -77 -31.5 -166t-24.5 -269h84zM106 187q0 -44 20 -79.5t45 -47.5h48
q58 11 141 210q4 42 16 140h-160q-39 -7 -74.5 -77.5t-35.5 -145.5zM379 740q33 -6 70 -25v-10q-74 -89 -142 -135l-49 19v7q72 71 121 144z" />
    <glyph glyph-name="acircumflex" unicode="&#xe2;" horiz-adv-x="546" 
d="M509 60q0 -23 -10 -43q-67 -8 -121 -32q-15 0 -25.5 11t-10.5 34l19 143l-10 6q-37 -90 -75 -139.5t-100 -49.5t-104 45.5t-42 123.5q0 129 77 225t191 96q37 0 84 -29q2 18 4 29q50 15 95 15q-19 -77 -31.5 -166t-24.5 -269h84zM106 187q0 -44 20 -79.5t45 -47.5h48
q58 11 141 210q4 42 16 140h-160q-39 -7 -74.5 -77.5t-35.5 -145.5zM296 713l53 27q47 -74 110 -138v-8l-52 -24q-54 46 -87 97q-40 -46 -100 -84l-44 11v8q89 64 120 111z" />
    <glyph glyph-name="atilde" unicode="&#xe3;" horiz-adv-x="546" 
d="M509 60q0 -23 -10 -43q-67 -8 -121 -32q-15 0 -25.5 11t-10.5 34l19 143l-10 6q-37 -90 -75 -139.5t-100 -49.5t-104 45.5t-42 123.5q0 129 77 225t191 96q37 0 84 -29q2 18 4 29q50 15 95 15q-19 -77 -31.5 -166t-24.5 -269h84zM106 187q0 -44 20 -79.5t45 -47.5h48
q58 11 141 210q4 42 16 140h-160q-39 -7 -74.5 -77.5t-35.5 -145.5zM442 587q-21 -7 -49.5 -7t-81 19t-62.5 19h-23q-11 -12 -19 -31h-37l-7 8l17 88q21 7 48 7t80.5 -19t64.5 -19h23q11 12 19 31h37l7 -8z" />
    <glyph glyph-name="adieresis" unicode="&#xe4;" horiz-adv-x="546" 
d="M509 60q0 -23 -10 -43q-67 -8 -121 -32q-15 0 -25.5 11t-10.5 34l19 143l-10 6q-37 -90 -75 -139.5t-100 -49.5t-104 45.5t-42 123.5q0 129 77 225t191 96q37 0 84 -29q2 18 4 29q50 15 95 15q-19 -77 -31.5 -166t-24.5 -269h84zM106 187q0 -44 20 -79.5t45 -47.5h48
q58 11 141 210q4 42 16 140h-160q-39 -7 -74.5 -77.5t-35.5 -145.5zM189 671.5q19 9.5 39 9.5t31.5 -9t11.5 -20l-5 -36q-11 -30 -64 -30q-20 0 -30.5 9t-10.5 21l4 31q5 15 24 24.5zM387 671.5q19 9.5 39 9.5t31.5 -9t11.5 -20l-5 -36q-11 -30 -64 -30q-20 0 -30.5 9
t-10.5 21l4 31q5 15 24 24.5z" />
    <glyph glyph-name="aring" unicode="&#xe5;" horiz-adv-x="546" 
d="M509 60q0 -23 -10 -43q-67 -8 -121 -32q-15 0 -25.5 11t-10.5 34l19 143l-10 6q-37 -90 -75 -139.5t-100 -49.5t-104 45.5t-42 123.5q0 129 77 225t191 96q37 0 84 -29q2 18 4 29q50 15 95 15q-19 -77 -31.5 -166t-24.5 -269h84zM106 187q0 -44 20 -79.5t45 -47.5h48
q58 11 141 210q4 42 16 140h-160q-39 -7 -74.5 -77.5t-35.5 -145.5zM271 686.5q23 28.5 57.5 28.5t53 -15.5t18.5 -49t-23 -62t-58 -28.5q-71 0 -71 61q0 37 23 65.5zM336 672h-19q-9 -2 -17 -12.5t-8.5 -31t18.5 -24.5h19q9 2 17 12.5t8.5 31t-18.5 24.5z" />
    <glyph glyph-name="ae" unicode="&#xe6;" horiz-adv-x="760" 
d="M680 60q0 -23 -10 -43q-126 -27 -172 -27q-81 0 -115.5 40.5t-36.5 136.5q-35 -84 -72.5 -130.5t-98.5 -46.5t-103 45.5t-42 123.5q0 129 77 225t191 96q37 0 84 -29q2 18 4 29q50 15 95 15q-9 -34 -15 -65q63 50 141 50q49 0 72 -25t23 -61q0 -180 -282 -186
q0 -140 62 -148h198zM106 187q0 -44 20 -79.5t45 -47.5h48q27 5 60 52.5t50 85t31 72.5l16 140h-160q-39 -7 -74.5 -77.5t-35.5 -145.5zM632 369q0 33 -28 41h-92q-34 -13 -58.5 -59.5t-31.5 -103.5q115 4 162.5 35.5t47.5 86.5z" />
    <glyph glyph-name="ccedilla" unicode="&#xe7;" horiz-adv-x="437" 
d="M137 -190q6 18 20 38q35 0 52 13.5t17 31.5t-11 26h-42l-6 9l21 63q-79 3 -119 47t-40 128t29.5 152t90.5 115t140 47q38 0 69.5 -14t45.5 -26q-21 -37 -34 -90l-5 -17q-20 -9 -49 -9q9 40 9 60t-15 26h-105q-41 -16 -71.5 -75.5t-30.5 -126.5q0 -78 29 -112
q25 -29 46 -34l8 -2h178q0 -23 -10 -43q-75 -19 -126 -25l-5 -26h33q28 -16 28 -50q0 -48 -41.5 -76.5t-105.5 -29.5z" />
    <glyph glyph-name="egrave" unicode="&#xe8;" horiz-adv-x="446" 
d="M381 60q0 -23 -10 -43q-106 -27 -152 -27q-172 0 -172 187q0 69 30 137.5t91.5 117t139.5 48.5q49 0 72 -25t23 -61q0 -180 -282 -186q0 -137 82 -148h178zM333 369q0 33 -28 41h-92q-33 -13 -57 -57.5t-32 -100.5q115 4 162 33.5t47 83.5zM238 760q44 -64 104 -139
l20 -25v-7l-49 -19q-28 20 -61 54t-52 58l-19 23v10q25 32 57 45z" />
    <glyph glyph-name="eacute" unicode="&#xe9;" horiz-adv-x="446" 
d="M381 60q0 -23 -10 -43q-106 -27 -152 -27q-172 0 -172 187q0 69 30 137.5t91.5 117t139.5 48.5q49 0 72 -25t23 -61q0 -180 -282 -186q0 -137 82 -148h178zM333 369q0 33 -28 41h-92q-33 -13 -57 -57.5t-32 -100.5q115 4 162 33.5t47 83.5zM354 740q33 -6 70 -25v-10
q-74 -89 -142 -135l-49 19v7q72 71 121 144z" />
    <glyph glyph-name="ecircumflex" unicode="&#xea;" horiz-adv-x="446" 
d="M381 60q0 -23 -10 -43q-106 -27 -152 -27q-172 0 -172 187q0 69 30 137.5t91.5 117t139.5 48.5q49 0 72 -25t23 -61q0 -180 -282 -186q0 -137 82 -148h178zM333 369q0 33 -28 41h-92q-33 -13 -57 -57.5t-32 -100.5q115 4 162 33.5t47 83.5zM277 713l53 27
q47 -74 110 -138v-8l-52 -24q-54 46 -87 97q-40 -46 -100 -84l-44 11v8q89 64 120 111z" />
    <glyph glyph-name="edieresis" unicode="&#xeb;" horiz-adv-x="446" 
d="M381 60q0 -23 -10 -43q-106 -27 -152 -27q-172 0 -172 187q0 69 30 137.5t91.5 117t139.5 48.5q49 0 72 -25t23 -61q0 -180 -282 -186q0 -137 82 -148h178zM333 369q0 33 -28 41h-92q-33 -13 -57 -57.5t-32 -100.5q115 4 162 33.5t47 83.5zM176 671.5q19 9.5 39 9.5
t31.5 -9t11.5 -20l-5 -36q-11 -30 -64 -30q-20 0 -30.5 9t-10.5 21l4 31q5 15 24 24.5zM374 671.5q19 9.5 39 9.5t31.5 -9t11.5 -20l-5 -36q-11 -30 -64 -30q-20 0 -30.5 9t-10.5 21l4 31q5 15 24 24.5z" />
    <glyph glyph-name="igrave" unicode="&#xec;" horiz-adv-x="287" 
d="M33 410q0 23 10 43q57 8 111 32q14 0 25 -12.5t11 -32.5q-23 -195 -31 -380h80q0 -23 -10 -43q-67 -8 -121 -32q-15 0 -25.5 11t-10.5 34q22 140 38 380h-77zM110 760q44 -64 104 -139l20 -25v-7l-49 -19q-28 20 -61 54t-52 58l-19 23v10q25 32 57 45z" />
    <glyph glyph-name="iacute" unicode="&#xed;" horiz-adv-x="287" 
d="M33 410q0 23 10 43q57 8 111 32q14 0 25 -12.5t11 -32.5q-23 -195 -31 -380h80q0 -23 -10 -43q-67 -8 -121 -32q-15 0 -25.5 11t-10.5 34q22 140 38 380h-77zM229 740q33 -6 70 -25v-10q-74 -89 -142 -135l-49 19v7q72 71 121 144z" />
    <glyph glyph-name="icircumflex" unicode="&#xee;" horiz-adv-x="287" 
d="M33 410q0 23 10 43q57 8 111 32q14 0 25 -12.5t11 -32.5q-23 -195 -31 -380h80q0 -23 -10 -43q-67 -8 -121 -32q-15 0 -25.5 11t-10.5 34q22 140 38 380h-77zM145 713l53 27q47 -74 110 -138v-8l-52 -24q-54 46 -87 97q-40 -46 -100 -84l-44 11v8q89 64 120 111z" />
    <glyph glyph-name="idieresis" unicode="&#xef;" horiz-adv-x="287" 
d="M33 410q0 23 10 43q57 8 111 32q14 0 25 -12.5t11 -32.5q-23 -195 -31 -380h80q0 -23 -10 -43q-67 -8 -121 -32q-15 0 -25.5 11t-10.5 34q22 140 38 380h-77zM42 671.5q19 9.5 39 9.5t31.5 -9t11.5 -20l-5 -36q-11 -30 -64 -30q-20 0 -30.5 9t-10.5 21l4 31q5 15 24 24.5
zM240 671.5q19 9.5 39 9.5t31.5 -9t11.5 -20l-5 -36q-11 -30 -64 -30q-20 0 -30.5 9t-10.5 21l4 31q5 15 24 24.5z" />
    <glyph glyph-name="eth" unicode="&#xf0;" horiz-adv-x="516" 
d="M466 395q0 -217 -70 -315q-28 -39 -76 -64.5t-113 -25.5q-87 0 -131.5 44.5t-44.5 141.5q0 70 28.5 138t89 117t140 49t116.5 -39q0 96 -40 162l-60 -45q-14 10 -21 20l-13 27l58 42q-16 16 -46 33v10l54 51q30 -22 51 -46l42 37h19l32 -42l-59 -44q44 -85 44 -251z
M178 62l8 -2h96q42 16 74 77t32 125q0 79 -28 112q-25 29 -44 34l-8 2h-96q-42 -16 -74 -77t-32 -132.5t26.5 -102.5t45.5 -36z" />
    <glyph glyph-name="ntilde" unicode="&#xf1;" horiz-adv-x="614" 
d="M55 410q0 23 10 43q57 8 111 32q14 0 25 -12.5t11 -32.5l-19 -143l10 -6q31 71 92 130t138 59q37 0 59 -10t26 -20l3 -10q-23 -193 -31 -380h80q0 -23 -10 -43q-67 -8 -121 -32q-15 0 -25.5 11t-10.5 34q22 140 38 380h-61q-40 0 -95 -62.5t-89 -137.5q-10 -124 -23 -210
q-49 -15 -94 -15q16 67 28 157t21 268h-73zM496 587q-21 -7 -49.5 -7t-81 19t-62.5 19h-23q-11 -12 -19 -31h-37l-7 8l17 88q21 7 48 7t80.5 -19t64.5 -19h23q11 12 19 31h37l7 -8z" />
    <glyph glyph-name="ograve" unicode="&#xf2;" horiz-adv-x="490" 
d="M178 62l8 -2h96q42 16 74 77t32 125q0 79 -28 112q-25 29 -44 34l-8 2h-96q-42 -16 -74 -77t-32 -132.5t26.5 -102.5t45.5 -36zM345.5 39q-60.5 -49 -143.5 -49q-171 0 -171 186q0 70 28.5 138t89 117t143.5 49q171 0 171 -186q0 -70 -28.5 -138t-89 -117zM254 760
q44 -64 104 -139l20 -25v-7l-49 -19q-28 20 -61 54t-52 58l-19 23v10q25 32 57 45z" />
    <glyph glyph-name="oacute" unicode="&#xf3;" horiz-adv-x="490" 
d="M178 62l8 -2h96q42 16 74 77t32 125q0 79 -28 112q-25 29 -44 34l-8 2h-96q-42 -16 -74 -77t-32 -132.5t26.5 -102.5t45.5 -36zM345.5 39q-60.5 -49 -143.5 -49q-171 0 -171 186q0 70 28.5 138t89 117t143.5 49q171 0 171 -186q0 -70 -28.5 -138t-89 -117zM357 740
q33 -6 70 -25v-10q-74 -89 -142 -135l-49 19v7q72 71 121 144z" />
    <glyph glyph-name="ocircumflex" unicode="&#xf4;" horiz-adv-x="490" 
d="M178 62l8 -2h96q42 16 74 77t32 125q0 79 -28 112q-25 29 -44 34l-8 2h-96q-42 -16 -74 -77t-32 -132.5t26.5 -102.5t45.5 -36zM345.5 39q-60.5 -49 -143.5 -49q-171 0 -171 186q0 70 28.5 138t89 117t143.5 49q171 0 171 -186q0 -70 -28.5 -138t-89 -117zM272 713l53 27
q47 -74 110 -138v-8l-52 -24q-54 46 -87 97q-40 -46 -100 -84l-44 11v8q89 64 120 111z" />
    <glyph glyph-name="otilde" unicode="&#xf5;" horiz-adv-x="490" 
d="M178 62l8 -2h96q42 16 74 77t32 125q0 79 -28 112q-25 29 -44 34l-8 2h-96q-42 -16 -74 -77t-32 -132.5t26.5 -102.5t45.5 -36zM345.5 39q-60.5 -49 -143.5 -49q-171 0 -171 186q0 70 28.5 138t89 117t143.5 49q171 0 171 -186q0 -70 -28.5 -138t-89 -117zM425 587
q-21 -7 -49.5 -7t-81 19t-62.5 19h-23q-11 -12 -19 -31h-37l-7 8l17 88q21 7 48 7t80.5 -19t64.5 -19h23q11 12 19 31h37l7 -8z" />
    <glyph glyph-name="odieresis" unicode="&#xf6;" horiz-adv-x="490" 
d="M178 62l8 -2h96q42 16 74 77t32 125q0 79 -28 112q-25 29 -44 34l-8 2h-96q-42 -16 -74 -77t-32 -132.5t26.5 -102.5t45.5 -36zM345.5 39q-60.5 -49 -143.5 -49q-171 0 -171 186q0 70 28.5 138t89 117t143.5 49q171 0 171 -186q0 -70 -28.5 -138t-89 -117zM180 671.5
q19 9.5 39 9.5t31.5 -9t11.5 -20l-5 -36q-11 -30 -64 -30q-20 0 -30.5 9t-10.5 21l4 31q5 15 24 24.5zM378 671.5q19 9.5 39 9.5t31.5 -9t11.5 -20l-5 -36q-11 -30 -64 -30q-20 0 -30.5 9t-10.5 21l4 31q5 15 24 24.5z" />
    <glyph glyph-name="divide" unicode="&#xf7;" horiz-adv-x="512" 
d="M167 347q138 0 249 10l16 -14l-13 -63h-343q-5 21 -5 33l5 34h91zM203 200.5q19 9.5 39 9.5t31.5 -9t11.5 -20l-5 -36q-11 -30 -64 -30q-20 0 -30.5 9t-10.5 21l4 31q5 15 24 24.5zM235 505.5q19 9.5 39 9.5t31.5 -9t11.5 -20l-5 -36q-11 -30 -64 -30q-20 0 -30.5 9
t-10.5 21l4 31q5 15 24 24.5z" />
    <glyph glyph-name="oslash" unicode="&#xf8;" horiz-adv-x="494" 
d="M31 176q0 70 28.5 138t89 117t138.5 49q18 0 26 -1l14 37l69 16l4 -16l-24 -52q87 -39 87 -170q0 -70 -28.5 -138t-89 -117t-138.5 -49q-17 0 -24 1l-13 -36q-3 -5 -36 -5l-27 5l20 47q-96 34 -96 174zM106 208q0 -98 50 -135l132 337h-76q-42 -16 -74 -77t-32 -125z
M388 262q0 89 -44 129l-135 -331h73q42 16 74 77t32 125z" />
    <glyph glyph-name="ugrave" unicode="&#xf9;" horiz-adv-x="607" 
d="M562 60q0 -23 -10 -43q-67 -8 -121 -32q-15 0 -25.5 11t-10.5 34l19 143l-10 6q-31 -71 -92 -130t-138 -59q-37 0 -59 10t-25 20l-4 10q22 197 30 380h-69q0 23 10 43q57 8 111 32q14 0 25 -12.5t11 -32.5q-22 -140 -38 -380h61q41 0 97 65t88 140q14 128 27 215
q50 15 95 15q-19 -77 -31.5 -166t-24.5 -269h84zM284 760q44 -64 104 -139l20 -25v-7l-49 -19q-28 20 -61 54t-52 58l-19 23v10q25 32 57 45z" />
    <glyph glyph-name="uacute" unicode="&#xfa;" horiz-adv-x="607" 
d="M562 60q0 -23 -10 -43q-67 -8 -121 -32q-15 0 -25.5 11t-10.5 34l19 143l-10 6q-31 -71 -92 -130t-138 -59q-37 0 -59 10t-25 20l-4 10q22 197 30 380h-69q0 23 10 43q57 8 111 32q14 0 25 -12.5t11 -32.5q-22 -140 -38 -380h61q41 0 97 65t88 140q14 128 27 215
q50 15 95 15q-19 -77 -31.5 -166t-24.5 -269h84zM397 740q33 -6 70 -25v-10q-74 -89 -142 -135l-49 19v7q72 71 121 144z" />
    <glyph glyph-name="ucircumflex" unicode="&#xfb;" horiz-adv-x="607" 
d="M562 60q0 -23 -10 -43q-67 -8 -121 -32q-15 0 -25.5 11t-10.5 34l19 143l-10 6q-31 -71 -92 -130t-138 -59q-37 0 -59 10t-25 20l-4 10q22 197 30 380h-69q0 23 10 43q57 8 111 32q14 0 25 -12.5t11 -32.5q-22 -140 -38 -380h61q41 0 97 65t88 140q14 128 27 215
q50 15 95 15q-19 -77 -31.5 -166t-24.5 -269h84zM306 713l53 27q47 -74 110 -138v-8l-52 -24q-54 46 -87 97q-40 -46 -100 -84l-44 11v8q89 64 120 111z" />
    <glyph glyph-name="udieresis" unicode="&#xfc;" horiz-adv-x="607" 
d="M562 60q0 -23 -10 -43q-67 -8 -121 -32q-15 0 -25.5 11t-10.5 34l19 143l-10 6q-31 -71 -92 -130t-138 -59q-37 0 -59 10t-25 20l-4 10q22 197 30 380h-69q0 23 10 43q57 8 111 32q14 0 25 -12.5t11 -32.5q-22 -140 -38 -380h61q41 0 97 65t88 140q14 128 27 215
q50 15 95 15q-19 -77 -31.5 -166t-24.5 -269h84zM217 671.5q19 9.5 39 9.5t31.5 -9t11.5 -20l-5 -36q-11 -30 -64 -30q-20 0 -30.5 9t-10.5 21l4 31q5 15 24 24.5zM415 671.5q19 9.5 39 9.5t31.5 -9t11.5 -20l-5 -36q-11 -30 -64 -30q-20 0 -30.5 9t-10.5 21l4 31
q5 15 24 24.5z" />
    <glyph glyph-name="yacute" unicode="&#xfd;" horiz-adv-x="571" 
d="M58 -217q0 19 9 42h228q45 22 79 141q22 75 32 207l-10 6q-31 -71 -92 -130t-138 -59q-37 0 -59 10t-25 20l-4 10q23 204 33 380h-69q0 23 10 43q57 8 111 32q14 0 25 -12.5t11 -32.5q-25 -140 -41 -380h61q41 0 97 65t88 140q14 128 27 215q50 15 95 15
q-19 -77 -25 -119.5t-13.5 -115.5l-12.5 -120.5t-14 -106t-20 -95t-31 -75t-46 -59.5q-60 -49 -157 -49q-41 0 -122 21zM387 740q33 -6 70 -25v-10q-74 -89 -142 -135l-49 19v7q72 71 121 144z" />
    <glyph glyph-name="thorn" unicode="&#xfe;" horiz-adv-x="424" 
d="M-9 715q0 23 10 43q57 8 111 32q14 0 25 -11.5t11 -33.5l-45 -448l10 -6q37 90 75 139.5t100 49.5t104 -45.5t42 -123.5q0 -129 -77 -225t-191 -96q-38 0 -81 13l-18 -198l78 -17q0 -23 -10 -43q-80 10 -107 10q-47 0 -106 -7l-19 -3q0 23 10 43q38 9 66 27
q50 293 85 900h-73zM358 283q0 44 -20 79.5t-45 47.5h-48q-42 -8 -87 -94q-29 -55 -54 -115l-13 -141h157q39 7 74.5 77.5t35.5 145.5z" />
    <glyph glyph-name="ydieresis" unicode="&#xff;" horiz-adv-x="571" 
d="M58 -217q0 19 9 42h228q45 22 79 141q22 75 32 207l-10 6q-31 -71 -92 -130t-138 -59q-37 0 -59 10t-25 20l-4 10q23 204 33 380h-69q0 23 10 43q57 8 111 32q14 0 25 -12.5t11 -32.5q-25 -140 -41 -380h61q41 0 97 65t88 140q14 128 27 215q50 15 95 15
q-19 -77 -25 -119.5t-13.5 -115.5l-12.5 -120.5t-14 -106t-20 -95t-31 -75t-46 -59.5q-60 -49 -157 -49q-41 0 -122 21zM204 671.5q19 9.5 39 9.5t31.5 -9t11.5 -20l-5 -36q-11 -30 -64 -30q-20 0 -30.5 9t-10.5 21l4 31q5 15 24 24.5zM402 671.5q19 9.5 39 9.5t31.5 -9
t11.5 -20l-5 -36q-11 -30 -64 -30q-20 0 -30.5 9t-10.5 21l4 31q5 15 24 24.5z" />
    <glyph glyph-name="Aogonek" unicode="&#x104;" horiz-adv-x="672" 
d="M682 31q0 -23 -10 -43q-40 3 -78 5q-68 -56 -68 -104t28 -59h95q0 -23 -10 -43q-81 -32 -107.5 -32t-52 22t-25.5 71q0 74 78 147l-105 -7q0 23 10 43q29 7 55 20q-31 159 -36 181q-117 3 -154.5 3t-87.5 -4l-88 -180l86 -20q0 -23 -10 -43q-80 7 -117 7l-95 -7
q0 23 10 43q32 9 59 28q187 330 299 578l-8 32q43 21 92 21q94 -425 157 -644zM239 283q47 -3 96.5 -3t109.5 2q-12 57 -66 274q-53 -97 -140 -273z" />
    <glyph glyph-name="aogonek" unicode="&#x105;" horiz-adv-x="546" 
d="M509 60q0 -23 -10 -43q-101 -67 -101 -129q0 -47 28 -58h95q0 -23 -10 -43q-81 -32 -107.5 -32t-52 22t-25.5 71q0 76 80 148q-10 -3 -28 -11q-15 0 -25.5 11t-10.5 34l19 143l-10 6q-37 -90 -75 -139.5t-100 -49.5t-104 45.5t-42 123.5q0 129 77 225t191 96q37 0 84 -29
q2 18 4 29q50 15 95 15q-19 -77 -31.5 -166t-24.5 -269h84zM106 187q0 -44 20 -79.5t45 -47.5h48q58 11 141 210q4 42 16 140h-160q-39 -7 -74.5 -77.5t-35.5 -145.5z" />
    <glyph glyph-name="Cacute" unicode="&#x106;" horiz-adv-x="582" 
d="M147 487.5q-46 -92.5 -46 -186t35.5 -159t103.5 -82.5h239q0 -23 -10 -43q-141 -37 -223 -37q-106 0 -167.5 74t-61.5 187q0 139 63 255q68 125 188 174q64 26 126.5 26t102 -18.5t51.5 -42.5q-21 -38 -34 -99l-5 -20q-25 -9 -54 -9q8 22 8 51q0 49 -26 67h-160
q-84 -45 -130 -137.5zM429 890q33 -6 70 -25v-10q-63 -74 -131 -120l-49 19v7q61 56 110 129z" />
    <glyph glyph-name="cacute" unicode="&#x107;" horiz-adv-x="437" 
d="M364 60q0 -23 -10 -43q-106 -27 -152 -27q-86 0 -129.5 44.5t-43.5 130t29.5 153.5t90.5 115t140 47q38 0 69.5 -14t45.5 -26q-21 -37 -34 -90l-5 -17q-20 -9 -49 -9q9 40 9 60t-15 26h-105q-41 -16 -71.5 -75.5t-30.5 -126.5q0 -78 29 -112q25 -29 46 -34l8 -2h178z
M356 740q33 -6 70 -25v-10q-74 -89 -142 -135l-49 19v7q72 71 121 144z" />
    <glyph glyph-name="Eogonek" unicode="&#x118;" horiz-adv-x="574" 
d="M537 680q9 -8 16 -25q-21 -37 -35 -90l-4 -17q-20 -9 -49 -9q9 40 9 60t-15 26h-243q-19 -164 -26 -255h224q16 24 24 54q7 3 20 3l22 -4q-21 -66 -31 -169q-8 -4 -20 -4l-17 3q0 40 -8 67h-217q-9 -122 -15 -260h259q19 28 28 64l3 13q31 -6 42 -21l4 -6
q-20 -50 -26 -110h-24q-77 -59 -77 -109t28 -61h95q0 -23 -10 -43q-81 -32 -107.5 -32t-52 22t-25.5 71q0 78 85 152h-287l-95 -7q0 23 10 43q36 11 64 33q26 223 45 557l-75 18q0 23 10 43q64 -7 104 -7h367z" />
    <glyph glyph-name="eogonek" unicode="&#x119;" horiz-adv-x="446" 
d="M381 60q0 -23 -10 -43q-101 -67 -101 -129q0 -47 28 -58h95q0 -23 -10 -43q-81 -32 -107.5 -32t-52 22t-25.5 71q0 76 81 149q-40 -7 -60 -7q-172 0 -172 187q0 69 30 137.5t91.5 117t139.5 48.5q49 0 72 -25t23 -61q0 -180 -282 -186q0 -137 82 -148h178zM333 369
q0 33 -28 41h-92q-33 -13 -57 -57.5t-32 -100.5q115 4 162 33.5t47 83.5z" />
    <glyph glyph-name="hbar" unicode="&#x127;" horiz-adv-x="597" 
d="M46 575q0 35 9 57h69q3 56 6 83h-73q0 23 10 43q57 8 111 32q14 0 25 -12.5t11 -32.5l-11 -112q29 2 78 9l16 -14l-13 -53h-87l-28 -278l10 -6q31 71 92 130t138 59q37 0 59 -10t26 -20l3 -10q-26 -221 -31 -380h80q0 -23 -10 -43q-67 -8 -121 -32q-15 0 -25.5 11
t-10.5 34q22 140 38 380h-61q-40 0 -95 -62.5t-89 -137.5q-10 -124 -23 -210q-49 -15 -94 -15q16 67 27 149t38 441h-74z" />
    <glyph glyph-name="Itilde" unicode="&#x128;" horiz-adv-x="334" 
d="M272 36q0 -23 -10 -43q-98 7 -128 7q-44 0 -94 -6l-13 -1q0 23 10 43q38 11 66 34q26 225 45 561l-76 13q0 23 10 43q88 -7 125 -7l110 7q0 -23 -10 -43q-47 -8 -75 -31q-26 -217 -44 -562zM336 761q-21 -7 -49.5 -7t-81 19t-62.5 19h-23q-11 -12 -19 -31h-37l-7 8l17 88
q21 7 48 7t80.5 -19t64.5 -19h23q11 12 19 31h37l7 -8z" />
    <glyph glyph-name="itilde" unicode="&#x129;" horiz-adv-x="287" 
d="M33 410q0 23 10 43q57 8 111 32q14 0 25 -12.5t11 -32.5q-23 -195 -31 -380h80q0 -23 -10 -43q-67 -8 -121 -32q-15 0 -25.5 11t-10.5 34q22 140 38 380h-77zM291 587q-21 -7 -49.5 -7t-81 19t-62.5 19h-23q-11 -12 -19 -31h-37l-7 8l17 88q21 7 48 7t80.5 -19t64.5 -19
h23q11 12 19 31h37l7 -8z" />
    <glyph glyph-name="dotlessi" unicode="&#x131;" horiz-adv-x="287" 
d="M33 410q0 23 10 43q57 8 111 32q14 0 25 -12.5t11 -32.5q-23 -195 -31 -380h80q0 -23 -10 -43q-67 -8 -121 -32q-15 0 -25.5 11t-10.5 34q22 140 38 380h-77z" />
    <glyph glyph-name="IJ" unicode="&#x132;" horiz-adv-x="629" 
d="M272 36q0 -23 -10 -43q-98 7 -128 7q-44 0 -94 -6l-13 -1q0 23 10 43q38 11 66 34q26 225 45 561l-76 13q0 23 10 43q88 -7 125 -7l110 7q0 -23 -10 -43q-47 -8 -75 -31q-26 -217 -44 -562zM438 644q0 23 10 43q93 -7 130 -7l105 7q0 -23 -10 -43q-49 -9 -78 -33
q-15 -105 -23.5 -265t-20 -247.5t-38.5 -154t-59 -107.5q-62 -77 -99 -97h-9q-12 15 -12 43q50 47 89 127t50.5 165.5t17.5 166t12.5 213t9.5 176.5z" />
    <glyph glyph-name="ij" unicode="&#x133;" horiz-adv-x="530" 
d="M58 -217q0 19 9 42h228q45 22 79 141q22 75 32 207l-10 6q-31 -71 -92 -130t-138 -59q-37 0 -59 10t-25 20l-4 10q23 204 33 380h-69q0 23 10 43q57 8 111 32q14 0 25 -12.5t11 -32.5q-25 -140 -41 -380h61q41 0 97 65t88 140q14 128 27 215q50 15 95 15
q-19 -77 -25 -119.5t-13.5 -115.5l-12.5 -120.5t-14 -106t-20 -95t-31 -75t-46 -59.5q-60 -49 -157 -49q-41 0 -122 21zM467 671.5q19 9.5 39 9.5t31.5 -9t11.5 -20l-5 -36q-11 -30 -64 -30q-20 0 -30.5 9t-10.5 21l4 31q5 15 24 24.5zM151 671.5q19 9.5 39 9.5t31.5 -9
t11.5 -20l-5 -36q-11 -30 -64 -30q-20 0 -30.5 9t-10.5 21l4 31q5 15 24 24.5z" />
    <glyph glyph-name="Jcircumflex" unicode="&#x134;" horiz-adv-x="295" 
d="M104 644q0 23 10 43q93 -7 130 -7l105 7q0 -23 -10 -43q-49 -9 -78 -33q-15 -105 -23.5 -265t-20 -247.5t-38.5 -154t-59 -107.5q-62 -77 -99 -97h-9q-12 15 -12 43q50 47 89 127t50.5 165.5t17.5 166t12.5 213t9.5 176.5zM212 878l53 27q47 -74 110 -138v-8l-52 -24
q-54 46 -87 97q-40 -46 -100 -84l-44 11v8q89 64 120 111z" />
    <glyph glyph-name="jcircumflex" unicode="&#x135;" horiz-adv-x="243" 
d="M-40 -230q53 62 84.5 125.5t41.5 137.5t24 377h-87l10 43q67 8 121 32q14 0 24.5 -12.5t11.5 -32.5q-7 -87 -12 -170q-10 -161 -16 -210q-26 -215 -186 -320h-9q-7 14 -7 30zM132 713l53 27q47 -74 110 -138v-8l-52 -24q-54 46 -87 97q-40 -46 -100 -84l-44 11v8
q89 64 120 111z" />
    <glyph glyph-name="kcommaaccent" unicode="&#x137;" horiz-adv-x="544" 
d="M53 715q0 23 10 43q57 8 111 32q14 0 25 -12.5t11 -32.5l-50 -448l10 -6q31 71 92 130t138 59q37 0 59 -10t25 -20l4 -10q-8 -90 -63.5 -155t-104.5 -85l92 -140h98q0 -23 -10 -43q-67 -8 -121 -32q-24 0 -37 24l-106 181v10q77 34 120.5 84t51.5 126h-61
q-40 0 -95 -62.5t-89 -137.5q-10 -124 -23 -210q-49 -15 -94 -15q16 67 20 98q20 147 60 632h-73zM193 -288q-15 5 -29 19v12q5 4 13 11t21.5 32t13.5 49t-10 40.5t-19 16.5v31q44 10 75 24h17q14 -21 14 -55.5t-24 -82.5t-48 -73z" />
    <glyph glyph-name="kgreenlandic" unicode="&#x138;" horiz-adv-x="560" 
d="M260 36q0 -23 -10 -43q-76 7 -109 7q-48 0 -93 -6l-13 -1q0 23 10 43q31 12 59 37q12 111 26 347l-69 14q0 23 10 43q67 -7 99 -7q46 0 101 6l15 1q0 -23 -10 -43q-35 -8 -63 -29l-14 -149q41 10 81 23q61 59 129 140l-61 21q0 17 12 37q42 -7 79 -7l90 7q0 -23 -10 -43
q-32 -4 -65 -37l-136 -145q87 -158 120 -206l73 -15q0 -23 -10 -43q-73 7 -138 7l-31 62.5l-28 58.5q-35 66 -59 102l-49 -9q-6 -97 -8 -159z" />
    <glyph glyph-name="Ldotaccent" unicode="&#x13f;" horiz-adv-x="547" 
d="M76 641q0 23 10 43q93 -7 124 -7q60 0 96 5l15 2q0 -23 -10 -43q-50 -9 -78 -33q-27 -230 -43 -551h275q19 28 27 72l2 15q30 -6 49 -27q-21 -52 -25 -120h-397l-95 -7q0 23 10 43q40 12 68 36q25 217 46 559zM432 360.5q19 9.5 39 9.5t31.5 -9t11.5 -20l-5 -36
q-11 -30 -64 -30q-20 0 -30.5 9t-10.5 21l4 31q5 15 24 24.5z" />
    <glyph glyph-name="ldot" unicode="&#x140;" horiz-adv-x="389" 
d="M46 715q0 23 10 43q57 8 111 32q14 0 25 -12.5t11 -32.5q-19 -160 -60 -685h78q0 -23 -10 -43q-67 -8 -121 -32q-15 0 -25.5 11t-10.5 34q53 445 69 685h-77zM281 360.5q19 9.5 39 9.5t31.5 -9t11.5 -20l-5 -36q-11 -30 -64 -30q-20 0 -30.5 9t-10.5 21l4 31
q5 15 24 24.5z" />
    <glyph glyph-name="Lslash" unicode="&#x141;" horiz-adv-x="547" 
d="M76 644q0 23 10 43q93 -7 130 -7l105 7q0 -23 -10 -43q-50 -9 -78 -33q-20 -163 -27 -266q98 54 157 93h21l21 -52l-203 -110q-7 -103 -12 -216h275q19 28 27 72l2 15q30 -6 49 -27q-21 -52 -25 -120h-410l-82 -7q0 23 10 43q40 12 68 36q13 110 17 160l-58 -31
q-21 22 -26 49l90 51q13 151 23 330z" />
    <glyph glyph-name="lslash" unicode="&#x142;" horiz-adv-x="327" 
d="M76 715q0 23 10 43q57 8 111 32q14 0 25 -12.5t11 -32.5q-9 -80 -29 -294q36 36 67 71l21 1l23 -40l-117 -108l-25 -315h78q0 -23 -10 -43q-67 -8 -121 -32q-15 0 -25.5 11t-10.5 34l30 267l-51 -47q-23 9 -35 34l94 86q22 216 31 345h-77z" />
    <glyph glyph-name="Nacute" unicode="&#x143;" horiz-adv-x="672" 
d="M254 36q0 -23 -10 -43q-90 7 -127 7l-95 -7q0 23 10 43q39 11 67 35q18 132 25 216.5l14.5 183.5t12.5 155l-83 18q0 23 10 43q64 -7 104 -7h54q87 -177 178 -337l102 -180q30 286 38 463l-85 18q0 23 10 43q67 -7 101 -7q54 0 109 6l15 1q0 -23 -10 -43q-46 -8 -74 -30
q-36 -295 -48 -614l-14 -10l-59 10l-289 537q-15 -121 -38 -484zM457 890q33 -6 70 -25v-10q-63 -74 -131 -120l-49 19v7q61 56 110 129z" />
    <glyph glyph-name="nacute" unicode="&#x144;" horiz-adv-x="614" 
d="M55 410q0 23 10 43q57 8 111 32q14 0 25 -12.5t11 -32.5l-19 -143l10 -6q31 71 92 130t138 59q37 0 59 -10t26 -20l3 -10q-23 -193 -31 -380h80q0 -23 -10 -43q-67 -8 -121 -32q-15 0 -25.5 11t-10.5 34q22 140 38 380h-61q-40 0 -95 -62.5t-89 -137.5q-10 -124 -23 -210
q-49 -15 -94 -15q16 67 28 157t21 268h-73zM446 740q33 -6 70 -25v-10q-74 -89 -142 -135l-49 19v7q72 71 121 144z" />
    <glyph glyph-name="OE" unicode="&#x152;" horiz-adv-x="1020" 
d="M931 680q9 -8 16 -25q-21 -37 -35 -90l-4 -17q-20 -9 -49 -9q9 40 9 60t-15 26h-243q-19 -164 -26 -255h224q16 24 24 54q7 3 20 3l22 -4q-21 -66 -31 -169q-8 -4 -20 -4l-17 3q0 40 -8 67h-217q-9 -122 -15 -260h259q19 28 28 64l3 13q31 -6 42 -21l4 -6
q-20 -50 -26 -110h-375q-76 -20 -158 -20q-134 0 -201.5 72.5t-67.5 188.5q0 173 94 305q46 64 121.5 102.5t170.5 38.5l117 -7h354zM204 487.5q-46 -92.5 -46 -186t35.5 -159t103.5 -82.5h139q29 16 46 31q22 195 41 507q-20 17 -49 27h-140q-84 -45 -130 -137.5z" />
    <glyph glyph-name="oe" unicode="&#x153;" horiz-adv-x="754" 
d="M338 177q0 79 40 156q-9 31 -26.5 50.5t-30.5 22.5l-13 4h-96q-42 -16 -74 -77t-32 -125q0 -79 28 -112q25 -29 44 -34l8 -2h96q32 12 61 55q-5 30 -5 62zM366 56q-68 -66 -157 -66t-133.5 44.5t-44.5 141.5q0 70 28.5 138t89 117t138.5 49q99 0 140 -78q75 78 172 78
q49 0 72 -25t23 -61q0 -180 -282 -186q0 -137 82 -148h178q0 -23 -10 -43q-106 -27 -152 -27q-102 0 -144 66zM624 369q0 33 -28 41h-92q-34 -13 -58.5 -59.5t-31.5 -103.5q115 4 162.5 35.5t47.5 86.5z" />
    <glyph glyph-name="Racute" unicode="&#x154;" horiz-adv-x="577" 
d="M589 31q0 -23 -10 -43q-84 7 -149 7q-53 140 -128 291q-26 -5 -64 -5h-39l-13 -230l82 -15q0 -23 -10 -43q-103 7 -140 7l-95 -7q0 23 10 43q40 12 68 36q26 220 45 554l-74 18q0 23 10 43q80 -7 117 -7l136 10q87 0 139.5 -39.5t52.5 -122t-39 -137t-106 -83.5
q64 -149 129 -264zM449 498q0 43 -22.5 80.5t-63.5 46.5h-132q-20 -172 -29 -293h102q68 13 106.5 58.5t38.5 107.5zM374 890q33 -6 70 -25v-10q-63 -74 -131 -120l-49 19v7q61 56 110 129z" />
    <glyph glyph-name="Rcommaaccent" unicode="&#x156;" horiz-adv-x="577" 
d="M589 31q0 -23 -10 -43q-84 7 -149 7q-53 140 -128 291q-26 -5 -64 -5h-39l-13 -230l82 -15q0 -23 -10 -43q-103 7 -140 7l-95 -7q0 23 10 43q40 12 68 36q26 220 45 554l-74 18q0 23 10 43q80 -7 117 -7l136 10q87 0 139.5 -39.5t52.5 -122t-39 -137t-106 -83.5
q64 -149 129 -264zM449 498q0 43 -22.5 80.5t-63.5 46.5h-132q-20 -172 -29 -293h102q68 13 106.5 58.5t38.5 107.5zM220 -288q-15 5 -29 19v12q5 4 13 11t21.5 32t13.5 49t-10 40.5t-19 16.5v31q44 10 75 24h17q14 -21 14 -55.5t-24 -82.5t-48 -73z" />
    <glyph glyph-name="rcommaaccent" unicode="&#x157;" horiz-adv-x="414" 
d="M31 410q0 23 10 43q57 8 111 32q14 0 25 -12.5t11 -32.5l-17 -120l10 -6q25 57 77.5 111.5t101.5 54.5q19 0 34.5 -8t21.5 -16l6 -8q-25 -44 -38 -98l-5 -17q-20 -9 -49 -9q9 41 9 52q0 28 -19 34q-22 0 -69 -56.5t-77 -121.5q-13 -150 -25 -232q-49 -15 -94 -15
q16 67 28 157t21 268h-73zM53 -275q-15 5 -29 19v12q5 4 13 11t21.5 32t13.5 49t-10 40.5t-19 16.5v31q44 10 75 24h17q14 -21 14 -55.5t-24 -82.5t-48 -72z" />
    <glyph glyph-name="Rcaron" unicode="&#x158;" horiz-adv-x="577" 
d="M589 31q0 -23 -10 -43q-84 7 -149 7q-53 140 -128 291q-26 -5 -64 -5h-39l-13 -230l82 -15q0 -23 -10 -43q-103 7 -140 7l-95 -7q0 23 10 43q40 12 68 36q26 220 45 554l-74 18q0 23 10 43q80 -7 117 -7l136 10q87 0 139.5 -39.5t52.5 -122t-39 -137t-106 -83.5
q64 -149 129 -264zM449 498q0 43 -22.5 80.5t-63.5 46.5h-132q-20 -172 -29 -293h102q68 13 106.5 58.5t38.5 107.5zM345 763l-53 -27q-47 74 -110 138v8l52 24q57 -51 88 -101q48 52 99 88l44 -11v-8q-68 -46 -120 -111z" />
    <glyph glyph-name="rcaron" unicode="&#x159;" horiz-adv-x="414" 
d="M31 410q0 23 10 43q57 8 111 32q14 0 25 -12.5t11 -32.5l-17 -120l10 -6q25 57 77.5 111.5t101.5 54.5q19 0 34.5 -8t21.5 -16l6 -8q-25 -44 -38 -98l-5 -17q-20 -9 -49 -9q9 41 9 52q0 28 -19 34q-22 0 -69 -56.5t-77 -121.5q-13 -150 -25 -232q-49 -15 -94 -15
q16 67 28 157t21 268h-73zM281 585l-53 -27q-47 74 -110 138v8l52 24q57 -51 88 -101q48 52 99 88l44 -11v-8q-68 -46 -120 -111z" />
    <glyph glyph-name="Sacute" unicode="&#x15a;" horiz-adv-x="534" 
d="M248 625q-64 -24 -64 -93.5t113 -134.5q95 -54 137.5 -98t42.5 -94q0 -111 -70.5 -168t-197.5 -57q-155 0 -185 70q21 38 34 99l5 20q25 9 54 9q-8 -22 -8 -51q0 -49 26 -67h200q59 37 59 108q0 46 -36 85.5t-111.5 83.5t-107.5 76t-32 81q0 101 68 151t179 50
q52 0 92.5 -17.5t48.5 -42.5q-21 -38 -35 -99l-4 -20q-25 -9 -54 -9q8 22 8 51q0 49 -26 67h-136zM383 890q33 -6 70 -25v-10q-63 -74 -131 -120l-49 19v7q61 56 110 129z" />
    <glyph glyph-name="sacute" unicode="&#x15b;" horiz-adv-x="454" 
d="M315 122q0 19 -10 30.5t-15.5 17t-18.5 14t-18 11.5q-25 15 -48.5 27.5t-36 20.5t-31.5 24q-34 29 -34 75q0 67 50.5 102.5t123.5 35.5t133 -40q-23 -43 -35 -92l-4 -15q-20 -9 -49 -9q9 41 9 52q0 32 -22 39h-97q-48 -7 -48 -56q0 -17 17 -34.5t34 -28t48.5 -26.5
t52.5 -29.5t42.5 -38t21.5 -49.5q0 -78 -51 -120.5t-138 -42.5q-53 0 -90.5 16.5t-48.5 32.5l-11 16q22 38 32 82l3 13q20 9 49 9q-9 -33 -9 -57q0 -35 57 -47h104q38 22 38 67zM346 740q33 -6 70 -25v-10q-74 -89 -142 -135l-49 19v7q72 71 121 144z" />
    <glyph glyph-name="Zacute" unicode="&#x179;" horiz-adv-x="588" 
d="M124 549q-28 7 -45 25q23 81 23 116q34 11 115 11t268 -33l16 22q39 0 67 -14l10 -4v-10l-432 -602h342q17 26 24 63l3 13q28 -7 45 -25q-23 -86 -23 -121q-46 -11 -99 -11q-183 0 -330 27l-12 -16q-20 0 -44.5 7t-33.5 17v10l436 601h-303q-17 -26 -25 -63zM407 890
q33 -6 70 -25v-10q-63 -74 -131 -120l-49 19v7q61 56 110 129z" />
    <glyph glyph-name="zacute" unicode="&#x17a;" horiz-adv-x="474" 
d="M128 334q-28 7 -45 25q23 80 23 115q3 6 55.5 6t212.5 -28l23 28q40 0 62 -18v-10l-318 -392h211q17 26 24 63l3 13q28 -7 45 -25q-23 -80 -23 -115q-9 -6 -91.5 -6t-205.5 24l-19 -24q-41 0 -63 24v10l317 386h-184q-17 -26 -25 -63zM363 740q33 -6 70 -25v-10
q-74 -89 -142 -135l-49 19v7q72 71 121 144z" />
    <glyph glyph-name="Zdotaccent" unicode="&#x17b;" horiz-adv-x="588" 
d="M124 549q-28 7 -45 25q23 81 23 116q34 11 115 11t268 -33l16 22q39 0 67 -14l10 -4v-10l-432 -602h342q17 26 24 63l3 13q28 -7 45 -25q-23 -86 -23 -121q-46 -11 -99 -11q-183 0 -330 27l-12 -16q-20 0 -44.5 7t-33.5 17v10l436 601h-303q-17 -26 -25 -63zM325 847.5
q19 9.5 39 9.5t31.5 -9t11.5 -20l-5 -36q-11 -30 -64 -30q-20 0 -30.5 9t-10.5 21l4 31q5 15 24 24.5z" />
    <glyph glyph-name="zdotaccent" unicode="&#x17c;" horiz-adv-x="474" 
d="M128 334q-28 7 -45 25q23 80 23 115q3 6 55.5 6t212.5 -28l23 28q40 0 62 -18v-10l-318 -392h211q17 26 24 63l3 13q28 -7 45 -25q-23 -80 -23 -115q-9 -6 -91.5 -6t-205.5 24l-19 -24q-41 0 -63 24v10l317 386h-184q-17 -26 -25 -63zM269 670.5q19 9.5 39 9.5t31.5 -9
t11.5 -20l-5 -36q-11 -30 -64 -30q-20 0 -30.5 9t-10.5 21l4 31q5 15 24 24.5z" />
    <glyph glyph-name="dotlessj" unicode="&#x237;" horiz-adv-x="243" 
d="M-40 -230q53 62 84.5 125.5t41.5 137.5t24 377h-87l10 43q67 8 121 32q14 0 24.5 -12.5t11.5 -32.5q-7 -87 -12 -170q-10 -161 -16 -210q-26 -215 -186 -320h-9q-7 14 -7 30z" />
    <glyph glyph-name="circumflex" unicode="&#x2c6;" 
d="M173 713l53 27q47 -74 110 -138v-8l-52 -24q-54 46 -87 97q-40 -46 -100 -84l-44 11v8q89 64 120 111z" />
    <glyph glyph-name="caron" unicode="&#x2c7;" 
d="M216 585l-53 -27q-47 74 -110 138v8l52 24q57 -51 88 -101q48 52 99 88l44 -11v-8q-68 -46 -120 -111z" />
    <glyph glyph-name="dotaccent" unicode="&#x2d9;" 
d="M136 670.5q19 9.5 39 9.5t31.5 -9t11.5 -20l-5 -36q-11 -30 -64 -30q-20 0 -30.5 9t-10.5 21l4 31q5 15 24 24.5z" />
    <glyph glyph-name="ring" unicode="&#x2da;" horiz-adv-x="232" 
d="M59 686.5q23 28.5 57.5 28.5t53 -15.5t18.5 -49t-23 -62t-58 -28.5q-71 0 -71 61q0 37 23 65.5zM124 672h-19q-9 -2 -17 -12.5t-8.5 -31t18.5 -24.5h19q9 2 17 12.5t8.5 31t-18.5 24.5z" />
    <glyph glyph-name="ogonek" unicode="&#x2db;" horiz-adv-x="833" 
d="M537 28v-11q-101 -67 -101 -129q0 -47 28 -58h95q0 -23 -10 -43q-81 -32 -107.5 -32t-52 22t-25.5 71q0 92 120 180h53z" />
    <glyph glyph-name="tilde" unicode="&#x2dc;" 
d="M346 587q-21 -7 -49.5 -7t-81 19t-62.5 19h-23q-11 -12 -19 -31h-37l-7 8l17 88q21 7 48 7t80.5 -19t64.5 -19h23q11 12 19 31h37l7 -8z" />
    <glyph glyph-name="dotaccentcmb" unicode="&#x307;" 
d="M136 670.5q19 9.5 39 9.5t31.5 -9t11.5 -20l-5 -36q-11 -30 -64 -30q-20 0 -30.5 9t-10.5 21l4 31q5 15 24 24.5z" />
    <glyph glyph-name="endash" unicode="&#x2013;" horiz-adv-x="512" 
d="M167 353q138 0 249 10l16 -14l-13 -63h-343q-5 21 -5 33l5 34h91z" />
    <glyph glyph-name="emdash" unicode="&#x2014;" horiz-adv-x="632" 
d="M283 353q138 0 249 10l16 -14l-13 -63h-433q-5 21 -5 33l5 34h181z" />
    <glyph glyph-name="quoteleft" unicode="&#x2018;" horiz-adv-x="233" 
d="M135 715q16 -5 34 -19v-12q-28 -24 -50 -59.5t-22 -60t10 -44t19 -19.5v-31q-39 -13 -80 -47h-12q-19 29 -19 68t30 97t60 92z" />
    <glyph glyph-name="quoteright" unicode="&#x2019;" horiz-adv-x="233" 
d="M84 423q-16 5 -34 19v12q28 24 50 59.5t22 60t-10 44t-19 19.5v31q39 13 80 47h12q19 -29 19 -68t-30 -97t-60 -92z" />
    <glyph glyph-name="quotesinglbase" unicode="&#x201a;" horiz-adv-x="227" 
d="M54 -174q-16 5 -34 19v12q28 24 50 59.5t22 60t-10 44t-19 19.5v31q39 13 80 47h12q19 -29 19 -68t-30 -97t-60 -93z" />
    <glyph glyph-name="quotedblleft" unicode="&#x201c;" horiz-adv-x="370" 
d="M135 715q16 -5 34 -19v-12q-28 -24 -50 -59.5t-22 -60t10 -44t19 -19.5v-31q-39 -13 -80 -47h-12q-19 29 -19 68t30 97t60 92zM283 715q16 -5 34 -19v-12q-28 -24 -50 -59.5t-22 -60t10 -44t19 -19.5v-31q-39 -13 -80 -47h-12q-19 29 -19 68t30 97t60 92z" />
    <glyph glyph-name="quotedblright" unicode="&#x201d;" horiz-adv-x="425" 
d="M103 423q-16 5 -34 19v12q28 24 50 59.5t22 60t-10 44t-19 19.5v31q39 13 80 47h12q19 -29 19 -68t-30 -97t-60 -92zM251 423q-16 5 -34 19v12q28 24 50 59.5t22 60t-10 44t-19 19.5v31q39 13 80 47h12q19 -29 19 -68t-30 -97t-60 -92z" />
    <glyph glyph-name="quotedblbase" unicode="&#x201e;" horiz-adv-x="366" 
d="M54 -174q-16 5 -34 19v12q28 24 50 59.5t22 60t-10 44t-19 19.5v31q39 13 80 47h12q19 -29 19 -68t-30 -97t-60 -93zM202 -174q-16 5 -34 19v12q28 24 50 59.5t22 60t-10 44t-19 19.5v31q39 13 80 47h12q19 -29 19 -68t-30 -97t-60 -93z" />
    <glyph glyph-name="bullet" unicode="&#x2022;" horiz-adv-x="250" 
d="M69 297q26 13 53.5 13t43 -12.5t15.5 -27.5l-7 -50q-7 -20 -32 -30.5t-53.5 -10.5t-43.5 12t-15 29l5 43q8 21 34 34z" />
    <glyph glyph-name="guilsinglleft" unicode="&#x2039;" horiz-adv-x="442" 
d="M164 261l176 -108v-18l-25 -28q-47 35 -109 71.5t-100 55.5l-39 19l4 40q65 32 130.5 76t98.5 78l61 -35v-18q-33 -32 -93 -73t-104 -60z" />
    <glyph glyph-name="guilsinglright" unicode="&#x203a;" horiz-adv-x="380" 
d="M260 313l-176 108v18l25 28q47 -35 109 -71.5t100 -55.5l39 -19l-4 -40q-65 -32 -130.5 -76t-98.5 -78l-61 35v18q33 32 93 73t104 60z" />
    <glyph glyph-name="Euro" unicode="&#x20ac;" horiz-adv-x="579" 
d="M484 585q0 -17 -20 -35h-154q-82 -44 -120 -137h20q82 0 189 9l15 -13l-13 -50h-228q-9 -40 -11 -93h38q82 0 189 9l15 -13l-12 -50h-226q10 -50 39 -88t65 -48h170q0 -23 -9 -41q-84 -35 -162 -35t-127.5 63t-54.5 149h-47q-5 10 -5 22l5 32h48q5 51 16 93h-55
q-5 10 -5 22l5 32h73q38 93 106.5 148.5t147.5 55.5q31 0 58 -8t38 -16z" />
    <glyph glyph-name="minus" unicode="&#x2212;" horiz-adv-x="407" 
d="M144 343q88 0 199 10l16 -14l-13 -53h-293q-5 11 -5 23l5 34h91z" />
    <glyph glyph-name="fl" unicode="&#xfb02;" horiz-adv-x="578" 
d="M301 470q0 -24 -10 -60h-107l-31 -410q-49 -15 -94 -15q16 67 23.5 124t29.5 301h-59q0 23 10 43q39 8 58 48q19 180 86 247q32 32 63 32q61 0 206 -20l49 -6q-19 -77 -23 -108q-25 -236 -50 -586h78q0 -23 -10 -43q-67 -8 -121 -32q-15 0 -25.5 11t-10.5 34
q52 439 69 685h-176q-41 -52 -59 -181l-8 -69z" />
    <glyph glyph-name="CR" horiz-adv-x="300" 
 />
    <glyph glyph-name="_0000" horiz-adv-x="0" 
 />
    <glyph glyph-name="commaaccent" horiz-adv-x="200" 
d="M78 -288q-15 5 -29 19v12q5 4 13 11t21.5 32t13.5 49t-10 40.5t-19 16.5v31q44 10 75 24h17q14 -21 14 -55.5t-24 -82.5t-48 -73z" />
    <glyph glyph-name="dotaccentcmb.cap" horiz-adv-x="341" 
d="M136 820.5q19 9.5 39 9.5t31.5 -9t11.5 -20l-5 -36q-11 -30 -64 -30q-20 0 -30.5 9t-10.5 21l4 31q5 15 24 24.5z" />
    <glyph glyph-name="grave.cap" 
d="M169 900q47 -70 93 -120l18 -19v-7l-49 -19q-30 20 -60 47t-45 44l-14 17v10q27 35 57 47z" />
    <glyph glyph-name="acute.cap" 
d="M228 890q33 -6 70 -25v-10q-63 -74 -131 -120l-49 19v7q61 56 110 129z" />
    <glyph glyph-name="circumflex.cap" 
d="M173 878l53 27q47 -74 110 -138v-8l-52 -24q-54 46 -87 97q-40 -46 -100 -84l-44 11v8q89 64 120 111z" />
    <glyph glyph-name="dieresis.cap" 
d="M89 820.5q19 9.5 39 9.5t31.5 -9t11.5 -20l-5 -36q-11 -30 -64 -30q-20 0 -30.5 9t-10.5 21l4 31q5 15 24 24.5zM287 820.5q19 9.5 39 9.5t31.5 -9t11.5 -20l-5 -36q-11 -30 -64 -30q-20 0 -30.5 9t-10.5 21l4 31q5 15 24 24.5z" />
    <glyph glyph-name="ring.cap" horiz-adv-x="232" 
d="M59 861.5q23 28.5 57.5 28.5t53 -15.5t18.5 -49t-23 -62t-58 -28.5q-71 0 -71 61q0 37 23 65.5zM124 847h-19q-9 -2 -17 -12.5t-8.5 -31t18.5 -24.5h19q9 2 17 12.5t8.5 31t-18.5 24.5z" />
    <glyph glyph-name="tilde.cap" 
d="M346 742q-21 -7 -49.5 -7t-81 19t-62.5 19h-23q-11 -12 -19 -31h-37l-7 8l17 88q21 7 48 7t80.5 -19t64.5 -19h23q11 12 19 31h37l7 -8z" />
    <glyph glyph-name="caron.cap" 
d="M216 763l-53 -27q-47 74 -110 138v8l52 24q57 -51 88 -101q48 52 99 88l44 -11v-8q-68 -46 -120 -111z" />
    </font>
</defs>
</svg>
